<?xml version="1.0" encoding="UTF-8" standalone="no"?>
<svg
    xmlns:inkscape="http://www.inkscape.org/namespaces/inkscape"
    xmlns:sodipodi="http://sodipodi.sourceforge.net/DTD/sodipodi-0.dtd"
    xmlns:xlink="http://www.w3.org/1999/xlink"
    xmlns:rdf="http://www.w3.org/1999/02/22-rdf-syntax-ns#"
    xmlns:cc="http://creativecommons.org/ns#"
    xmlns:dc="http://purl.org/dc/elements/1.1/"
    version="1.1"
    viewBox="0 0 1000 999.99999"
    id="svg308"
    sodipodi:docname="threeleaf-logo-2023-compact.svg"
    inkscape:version="1.2.2 (b0a84865, 2022-12-01)"
    width="1000"
    height="1000"
    xmlns="http://www.w3.org/2000/svg">
    <title
        id="title6109">ThreeLeaf.com Logo
    </title>
    <defs
        id="defs312">
        <rect
            x="221.90938"
            y="896.00795"
            width="90.586645"
            height="71.241653"
            id="rect10141"/>
        <rect
            x="225.81558"
            y="909.21463"
            width="128.53259"
            height="77.937997"
            id="rect10135"/>
        <inkscape:path-effect
            effect="bspline"
            id="path-effect7705"
            is_visible="true"
            lpeversion="1"
            weight="33.333333"
            steps="2"
            helper_size="0"
            apply_no_weight="true"
            apply_with_weight="true"
            only_selected="false"/>
    </defs>
    <sodipodi:namedview
        id="namedview310"
        pagecolor="#ffffff"
        bordercolor="#000000"
        borderopacity="0.25"
        inkscape:showpageshadow="2"
        inkscape:pageopacity="0.0"
        inkscape:pagecheckerboard="0"
        inkscape:deskcolor="#d1d1d1"
        showgrid="false"
        inkscape:zoom="1.887"
        inkscape:cx="499.73503"
        inkscape:cy="500"
        inkscape:window-width="3840"
        inkscape:window-height="2107"
        inkscape:window-x="1728"
        inkscape:window-y="25"
        inkscape:window-maximized="0"
        inkscape:current-layer="svg308"
        showguides="true"/>
    <ellipse
        style="display:none;fill:#c8c4b7;fill-opacity:1;stroke:#ab8a80;stroke-width:13.149;stroke-linecap:round;stroke-linejoin:round;paint-order:stroke markers fill"
        id="path5722"
        cx="500"
        cy="500"
        rx="491.70667"
        ry="473.6319"
        inkscape:label="circle"/>
    <g
        id="g7049"
        inkscape:label="outline"
        transform="matrix(1.3594958,0,0,1.3594958,-196.12621,-171.78058)"
        style="display:inline;stroke:#000000;stroke-width:3.67783;stroke-linecap:round;stroke-linejoin:round;stroke-dasharray:none;paint-order:markers stroke fill">
        <path
            id="path7047"
            d="m 512.15365,157.49988 c -0.03,0.002 -0.0605,0.0862 -0.0905,0.25285 -1.65332,9.25332 -3.75645,18.4001 -6.30978,27.44009 0.497,0.51141 -0.13137,5.68742 -0.6192,8.99776 0.48747,-3.31051 1.11471,-8.48641 0.61776,-8.99776 -7.48662,23.0199 -17.8323,44.67318 -31.0389,64.95974 -12.90995,18.61991 -25.23072,44.31997 -22.98072,67.51987 0.02,15.0599 5.66155,30.01979 13.4715,42.85969 13.39995,22.0299 27.23841,43.02954 37.28836,66.9294 0.22666,0.53333 0.30802,0.52461 0.24135,-0.0287 l -0.44967,-3.93069 c -1.0933,-29.83997 -1.42997,-49.0858 -1.00997,-57.73912 1.95,-39.96996 5.59979,-79.83021 9.60978,-119.63017 0.19333,-1.92667 0.56583,-7.26681 1.11916,-16.02013 0.007,-0.0667 0.0131,-0.10362 0.0201,-0.11062 l 0.19107,-0.0603 c 0.0814,-0.0321 0.17058,0.0968 0.17958,0.26003 2.65,46.77995 10.01045,93.5708 10.49045,140.30075 0.16,14.87999 -0.33452,32.85581 -1.48119,53.92912 v 10e-4 l -0.52007,3.43935 c -0.08,0.51333 -0.005,0.52692 0.22125,0.0402 8.57999,-18.3399 17.56553,-34.6341 26.95881,-48.88071 6.57329,-9.97995 11.4664,-17.98274 14.67973,-24.00936 6.69328,-12.17995 10.25485,-25.20659 10.68152,-39.07986 0.15,-31.13985 -14.21141,-52.27919 -30.45132,-78.03905 -4.67999,-7.42665 -10.03825,-18.27572 -16.86488,-34.01565 -0.40118,-0.3656 -4.75085,-12.71301 -7.62288,-21.20214 -2.50182,-8.18976 -4.59349,-16.50045 -6.24226,-24.94319 -0.03,-0.16333 -0.0591,-0.24446 -0.0891,-0.24279 z m -14.9728,70.66757 c -2.69167,10.39332 -5.56711,20.73794 -8.62711,31.0346 3.06,-10.29662 5.93534,-20.64141 8.62711,-31.0346 z m 33.42519,12.53481 c 2.83592,10.35824 5.84052,20.67139 8.96472,30.95127 -3.12431,-10.28025 -6.12881,-20.59273 -8.96472,-30.95127 z m -88.68178,56.29672 c -0.12666,-0.0533 -0.35287,0.0939 -0.67953,0.44392 -5.35333,5.70666 -10.11029,11.8644 -14.27029,18.47106 h -0.001 c -11.78662,18.59327 -19.03617,38.84232 -21.7495,60.74891 -4.32997,31.27991 2.85024,61.87148 23.90018,85.8214 11.35996,12.92664 20.3687,23.56966 27.02202,31.92963 20.87994,28.85992 37.03882,60.77022 49.80879,93.9701 0.33333,0.87334 0.47623,0.84422 0.42956,-0.0891 l -0.46835,-9.63133 c -5.8e-4,-0.001 -8.6e-4,-0.003 -10e-4,-0.004 0.0798,-23.41186 -1.08651,-46.73799 -3.49969,-69.97654 -3.02,-30.49991 -10.55011,-60.50075 -23.37005,-87.98069 -6.17,-13.19994 -14.10003,-25.96945 -22.60001,-41.0294 -13.07996,-23.1666 -18.31646,-47.91929 -15.70981,-74.2592 -1.56499,6.51997 -2.53176,12.41746 -2.9006,17.69239 0.36875,-5.27499 1.3356,-11.1724 2.9006,-17.69239 l 1.27001,-7.65018 c 0.0733,-0.45667 0.0462,-0.71097 -0.0805,-0.7643 z m 142.69709,2.06734 c -0.0683,0.0383 -0.10108,0.1679 -0.0977,0.3879 0.0267,2.54667 0.48246,4.99659 1.36913,7.34992 1.88,17.03996 0.29708,33.55834 -4.74958,49.55163 -7.09999,22.44996 -21.04982,39.8582 -31.9598,60.86816 -14.97331,28.84661 -23.88033,59.63783 -26.72033,92.3711 -2.96999,25.14991 -3.55085,50.24935 -3.96085,75.53926 l -0.43962,4.26974 c -0.0467,0.39333 0.0808,0.52071 0.38071,0.38071 0.14667,-0.06 0.2571,-0.184 0.33044,-0.37066 14.04996,-33.91993 29.7782,-66.1689 51.72816,-95.77884 7.39999,-9.18665 14.99241,-18.21767 22.7724,-27.09099 6.07331,-6.92665 10.24033,-12.11712 12.50032,-15.57045 9.82664,-15.03997 15.12611,-31.81896 15.89945,-50.33892 1.54,-35.76992 -11.01227,-71.94988 -34.42222,-98.99982 l -2.31733,-2.41071 c -0.14,-0.14333 -0.24485,-0.19636 -0.31319,-0.15803 z m -157.1958,17.12779 h 0.001 c 0.0666,0.0571 0.0992,0.1243 0.14654,0.18676 -0.0475,-0.0627 -0.0811,-0.1295 -0.14798,-0.18676 z m 10.23903,11.97882 c 0.0175,2.93332 0.13333,5.84617 0.34624,8.73917 -0.21285,-2.89255 -0.32874,-5.80632 -0.34624,-8.73917 z m -15.81612,4.00108 c -1.6236,4.91081 -2.86918,9.88385 -3.54422,15.18831 0.67499,-5.30499 1.92014,-10.27712 3.54422,-15.18831 z m -3.54422,15.18974 c -0.36334,2.86 -0.6083,5.7191 -0.73414,8.57826 0.12565,-2.85876 0.3709,-5.71874 0.73414,-8.57826 z m -214.14189,1.25851 c -0.0683,0.0483 -0.0323,0.24863 0.10774,0.60196 l 3.94075,9.91004 7.43899,24.94031 c 4.28666,21.23326 8.34128,42.48351 12.16128,63.75008 0.79332,4.39333 1.94469,9.49712 3.45802,15.31043 6.80996,30.49987 24.74016,54.97896 53.59007,67.09892 11.76993,4.94996 26.87158,7.94037 39.88151,9.46036 15.11329,1.76 29.1871,4.57906 42.22039,8.45902 0.32,0.1 0.34915,0.0404 0.0891,-0.17958 l -2.55006,-2.12768 c -36.76659,-30.74661 -69.94334,-64.97199 -99.52995,-102.67191 -2.22999,-2.84999 -25.8401,-33.34977 -25.4101,-33.72977 0.0801,-0.078 0.24176,-0.0368 0.35917,0.0905 12.20997,13.06998 25.88995,24.66949 39.59992,35.70947 16.99997,13.68997 34.33097,27.12079 50.95094,41.27076 17.18663,14.63997 33.7239,29.99249 49.61053,46.05913 0.81333,0.82667 1.01241,0.69733 0.59908,-0.38934 l -2.21532,-5.78253 c -1.62365,-8.24242 -8.49226,-30.12224 -10.25339,-36.51831 -5.48,-27.28994 -18.70112,-53.36907 -40.31108,-70.92904 -11.11331,-9.20664 -23.49713,-16.38447 -37.15043,-21.53113 -7.04665,-2.87333 -19.64168,-8.3801 -37.78831,-16.52008 -17.85996,-8.00666 -33.95499,-18.66179 -48.28163,-31.96843 -0.27667,-0.25667 -0.44887,-0.36152 -0.51719,-0.31319 z m 618.16202,0.46835 c -0.0283,-0.02 -0.0964,0.0217 -0.20975,0.12499 -14.1133,12.59331 -31.06857,23.30946 -50.86186,32.14944 -26.79996,11.96998 -51.60833,19.82104 -72.31829,37.251 -21.19996,18.93996 -34.84166,42.35623 -40.92165,70.24951 -1.76,6.33332 -3.19858,12.78025 -4.31858,19.34023 -2.71331,8.17332 -5.92466,16.17606 -9.63133,24.00936 -0.42666,0.9 -0.28377,1.00365 0.42956,0.31032 14.69328,-14.20663 29.95043,-28.01016 45.77036,-41.41011 29.27988,-23.69992 66.10088,-51.32968 96.88075,-80.66956 -28.08991,36.79988 -60.71064,76.16964 -95.57053,108.59955 -8.47997,7.87997 -19.80941,17.27076 -29.59938,26.03073 l -4.30996,3.70944 c -0.31333,0.2733 -0.2707,0.33631 0.1293,0.18964 18.45998,-6.72 38.54971,-8.52958 57.83969,-11.85958 48.23995,-8.35999 73.19066,-37.73967 81.88065,-84.48962 4.1,-22.03331 8.42006,-44.0245 12.96006,-65.97115 2.26666,-9.56663 5.00381,-18.99585 8.21048,-28.28915 l 3.60025,-9.02937 c 0.0567,-0.14333 0.0685,-0.22567 0.0402,-0.24567 z m -341.77279,2.84745 c 0.58583,2.6075 1.23063,5.18857 1.9323,7.74356 2.83333,10.32999 5.8989,20.81458 9.19889,31.45123 -3.3002,-10.63675 -6.367,-21.11984 -9.20033,-31.44979 -0.70166,-2.55499 -1.34515,-5.13751 -1.93086,-7.745 z m -40.09127,2.09177 c 0.60367,2.81189 1.30568,5.6041 2.1047,8.37569 -0.79917,-2.77208 -1.50095,-5.5633 -2.1047,-8.37569 z m 377.32279,3.86747 c 0.10251,0.005 0.20565,0.0244 0.30745,0.0589 -0.20475,-0.0696 -0.41239,-0.076 -0.61489,-0.0316 0.10133,-0.0222 0.20448,-0.0321 0.30744,-0.0273 z m -608.25342,0.44824 c -0.28,0.02 -0.53034,0.0956 -0.74993,0.22699 0.21959,-0.13143 0.46993,-0.20699 0.74993,-0.22699 z m 237.2907,16.39796 c 1.09227,2.71158 2.28239,5.40273 3.57008,8.074 -1.28748,-2.67091 -2.47795,-5.36278 -3.57008,-8.074 z m 3.57008,8.07544 c 1.28754,2.67088 2.67334,5.32128 4.15624,7.95188 -1.48288,-2.63063 -2.86871,-5.28096 -4.15624,-7.95188 z m 4.15624,7.95331 c 0.74137,1.31513 1.50845,2.62563 2.29865,3.93069 3.59499,5.93498 7.45185,12.00996 11.12689,18.05012 -3.675,-6.04 -7.53333,-12.11513 -11.12833,-18.05012 -0.79041,-1.30542 -1.55564,-2.61519 -2.29721,-3.93069 z m -59.93433,25.41154 c -0.055,-0.007 -0.12159,0.0733 -0.19825,0.23992 -3.41333,7.54666 -5.68986,15.38275 -6.82986,23.5094 -1.75999,6.83333 -2.72922,13.74426 -2.90922,20.73092 -1.23,48.58995 16.79013,87.6091 48.0101,123.74906 21.46998,24.85998 48.30012,55.61037 70.10009,87.41034 1.97333,2.87999 3.8333,5.83318 5.57997,8.85984 0.20666,0.35333 0.27303,0.33299 0.19969,-0.0603 l -1.46969,-7.81971 c -0.80667,-11.63998 -2.29076,-23.10253 -4.45076,-34.38918 -5.91333,-39.76663 -20.27964,-75.89115 -43.09962,-108.37112 -13.70998,-19.49998 -30.43087,-36.46883 -43.32086,-56.66881 -9.89999,-15.51999 -16.66659,-32.34444 -20.29992,-50.47109 l -1.17949,-6.43908 c -0.0333,-0.18 -0.0772,-0.27349 -0.13218,-0.28015 z m 238.51186,0.39508 c -0.0667,0.002 -0.12091,0.10266 -0.16091,0.306 l -0.92951,4.73091 c -0.90462,8.01589 -2.23696,15.52367 -3.9939,22.52817 1.75689,-7.004 3.08933,-14.51275 3.9939,-22.52817 -4.06667,18.27331 -10.26026,34.1833 -18.58025,47.72995 -11.88999,19.34998 -27.08017,36.13993 -40.91016,54.06991 -18.93998,24.57331 -32.4136,51.86396 -40.42026,81.8706 -3.08666,11.53998 -5.29004,22.49927 -6.61004,32.87926 0.39324,-2.04455 0.82388,-4.10791 1.29011,-6.18911 -0.46633,2.08166 -0.89534,4.14555 -1.28867,6.19054 -2.38,11.35997 -4.05249,22.83807 -5.01249,34.43804 l 10e-4,0.003 -1.68951,8.4073 c -0.0533,0.26 -0.007,0.28034 0.13936,0.0603 12.61998,-18.55998 22.18671,-31.98275 28.70003,-40.26941 9.54666,-12.13999 24.8071,-30.29404 45.78042,-54.46068 7.46666,-8.59999 13.86272,-16.70635 19.18938,-24.31968 24.79972,-35.43959 36.98025,-83.1805 26.81084,-126.2201 v -10e-4 c -1.17333,-6.56664 -3.19654,-12.87603 -6.06986,-18.92935 -0.0933,-0.2 -0.17326,-0.29762 -0.23992,-0.29595 z m -159.83207,5.18632 c 1.69064,2.98068 3.27974,5.93074 4.71223,8.82824 -1.4325,-2.8975 -3.0216,-5.84762 -4.71223,-8.82824 z m -35.93789,2.17797 c 3.76999,6.03999 7.40553,11.936 10.93006,17.826 -3.52454,-5.89015 -7.16007,-11.78603 -10.93006,-17.826 z m 187.56522,30.81048 c -0.88315,2.5869 -1.84624,5.13743 -2.88336,7.65736 1.03709,-2.5199 2.00022,-5.07047 2.88336,-7.65736 z M 496.9754,482.47387 c 0.63177,2.56929 1.22585,5.15326 1.78002,7.75075 0.14667,0.67333 0.56518,3.659 1.25851,8.95898 -0.69333,-5.3 -1.11328,-8.28708 -1.25995,-8.96041 -0.55416,-2.5975 -1.1468,-5.18005 -1.77858,-7.74932 z m 309.64347,4.139 c -0.165,0.002 -0.32944,0.27654 -0.49278,0.82321 -9.69999,32.33996 -39.30922,53.45957 -71.20919,61.11957 -20.11998,4.82999 -36.70965,7.91932 -54.52963,14.09932 -6.93332,2.38666 -13.68443,5.21926 -20.25108,8.49924 -18.81994,8.98664 -35.55632,20.89094 -50.20962,35.71091 l -4.12894,4.32002 c -0.23334,0.24667 -0.19748,0.3043 0.10919,0.17096 22.99993,-9.8933 46.99407,-13.23595 71.98067,-10.02928 30.85991,5.96997 60.45803,16.28892 89.77794,-1.45102 26.32991,-15.93997 40.12059,-46.00058 42.76057,-76.01049 0,0 -1e-5,-0.01 0,-0.0101 l 10e-4,0.0101 c 1.46666,-12.42666 0.36327,-24.57263 -3.31006,-36.43929 -0.16666,-0.54333 -0.33351,-0.81481 -0.49851,-0.81315 z m -584.50266,0.1293 c -0.0667,-0.002 -0.13641,0.0819 -0.20975,0.24854 -5.47998,12.83997 -5.27134,28.29924 -3.03134,42.0092 5.93999,41.05988 32.68163,79.3212 77.46151,80.9612 14.58996,-0.14 27.40054,-3.50071 43.00048,-6.9807 25.53992,-5.7 53.01024,-2.45167 78.49016,6.8083 0.29,0.1 7.42028,4.55079 1.0703,-1.37919 -12.66663,-14.71996 -27.68737,-26.45138 -45.06065,-35.19802 -2.62023,-1.40086 -4.89027,-2.52628 -7.51944,-3.51262 -0.006,-0.002 -0.0115,-0.004 -0.0172,-0.006 -21.70498,-10.7142 -43.85962,-14.76423 -67.23397,-19.833 -33.83997,-7.35 -62.59917,-26.0897 -75.51915,-59.35967 l -1.23984,-3.50113 c -0.06,-0.17 -0.12441,-0.2555 -0.19107,-0.25716 z m 0.99847,3.71806 c -0.11671,0.005 -0.23456,0.018 -0.35772,0.0503 a 0.52,0.47 73.1 0 0 -0.28159,0.2471 0.52,0.47 73.1 0 0 -0.0187,0.40226 c 0.21666,0.67667 0.44505,1.60108 0.68672,2.77275 -0.24196,-1.1715 -0.4715,-2.09609 -0.68816,-2.77275 -0.0467,-0.14048 -0.0346,-0.28398 0.0201,-0.40226 0.0548,-0.1178 0.15327,-0.21188 0.28159,-0.24854 0.12273,-0.0321 0.24118,-0.0437 0.35772,-0.0488 z m 585.59164,4.9033 c 0.0543,-0.003 0.10777,0.009 0.1566,0.0316 0.0976,0.0459 0.1751,0.13797 0.19395,0.26003 -0.0179,-0.1136 -0.0913,-0.21163 -0.19395,-0.26003 -0.10326,-0.0484 -0.22212,-0.0403 -0.31606,0.0215 -0.25,0.17 -0.54704,0.42667 -0.81315,0.71402 0.26625,-0.2875 0.56315,-0.54546 0.81315,-0.71546 0.0503,-0.0329 0.10517,-0.049 0.15946,-0.0517 z m -308.30593,6.23652 c 0.30504,1.60119 0.70611,3.18503 1.20104,4.74958 -0.495,-1.565 -0.89604,-3.14792 -1.20104,-4.74958 z m 304.09366,1.13352 c -0.0299,0.0616 -0.0591,0.1238 -0.0891,0.18533 0.03,-0.0615 0.0591,-0.12369 0.0891,-0.18533 z m 5.71501,2.51271 c 0.37984,5.17677 0.37173,10.37495 -0.0302,15.59487 l -10e-4,10e-4 c 0.40198,-5.21994 0.41112,-10.41923 0.0316,-15.59631 z m -11.61247,8.20329 c -1.06406,1.7063 -2.16268,3.36236 -3.29856,4.96508 1.1361,-1.60305 2.23431,-3.2584 3.29856,-4.96508 z m -565.44832,4.78693 c 0.0286,0.0427 0.0575,0.0852 0.0862,0.12786 -0.0287,-0.0426 -0.0576,-0.0852 -0.0862,-0.12786 z m 560.44302,2.50983 c -1.15552,1.52984 -2.34688,3.01043 -3.57583,4.4407 1.22893,-1.43026 2.42033,-2.91087 3.57583,-4.4407 z m -7.37578,8.58258 c -1.30482,1.33143 -2.64815,2.61403 -4.03125,3.84735 1.38307,-1.23331 2.72645,-2.51593 4.03125,-3.84735 z m -540.15603,3.85885 c 0.0339,0.0307 0.068,0.0613 0.10201,0.0919 -0.034,-0.0306 -0.0681,-0.0613 -0.10201,-0.0919 z m 534.02008,1.80156 c -1.42315,1.18455 -2.88679,2.32022 -4.39185,3.40775 -3.76266,2.71881 -7.78548,5.13613 -12.08657,7.25653 -1.72044,0.84816 -3.48468,1.6484 -5.29551,2.40209 -1.81082,0.75368 -3.66771,1.46056 -5.57134,2.1205 -1.90364,0.65994 -3.85407,1.27344 -5.85293,1.84035 -1.03184,0.29265 -2.07852,0.571 -3.13622,0.83901 1.0581,-0.2681 2.10401,-0.54625 3.13622,-0.83901 1.99885,-0.56691 3.94931,-1.18042 5.85293,-1.84035 1.90362,-0.65993 3.76053,-1.36683 5.57134,-2.1205 1.81081,-0.75367 3.57509,-1.55394 5.29551,-2.40209 4.30104,-2.12036 8.32397,-4.53776 12.08657,-7.25653 1.50503,-1.08752 2.96872,-2.22322 4.39185,-3.40775 z m -526.26502,4.39473 c 0.0421,0.0297 0.0842,0.0594 0.12643,0.0891 -0.0422,-0.0296 -0.0843,-0.0594 -0.12643,-0.0891 z m 4.20509,2.7828 c 0.0228,0.0141 0.0447,0.029 0.0675,0.0431 3.1275,1.84875 6.24229,3.46079 9.36842,4.87744 -3.1261,-1.41661 -6.24093,-3.02725 -9.36842,-4.876 -0.0231,-0.0143 -0.0445,-0.0302 -0.0675,-0.0445 z m 22.0512,9.64856 c 1.10115,0.33534 2.20694,0.65256 3.31867,0.95681 -1.11106,-0.30406 -2.21818,-0.62171 -3.31867,-0.95681 z m 457.56853,2.4222 c -0.0284,0.006 -0.0549,0.013 -0.0833,0.0187 -0.0841,0.0168 -0.19279,0.0363 -0.27728,0.0531 0.0933,-0.0186 0.18545,-0.036 0.27871,-0.0546 0.0276,-0.006 0.0543,-0.0117 0.0819,-0.0172 z m -147.95955,2.81728 c -3.47515,4.05875 -6.90338,8.15859 -10.18588,12.38108 -2.24999,2.895 -4.46039,5.81904 -6.62728,8.77365 2.16686,-2.95458 4.37585,-5.87866 6.62585,-8.77365 3.28248,-4.22248 6.71209,-8.32224 10.18731,-12.38108 z m -265.18333,2.76987 c 4.13666,0.58 7.75295,1.1283 10.84961,1.64497 1.26583,0.21083 2.53515,0.43855 3.80713,0.68241 -1.27199,-0.24382 -2.5413,-0.47014 -3.80713,-0.68098 -3.09666,-0.51666 -6.71287,-1.06628 -10.84961,-1.6464 z m 209.65522,46.29186 c -2.27502,6.68446 -4.22205,13.20409 -5.84,19.55861 1.61802,-6.35458 3.56488,-12.87407 5.84,-19.55861 z m 123.73038,10.06233 c -19.54911,-0.0278 -38.75429,3.39969 -57.61557,10.28213 -16.00305,5.83478 -28.35843,14.68972 -42.63701,25.54802 -3.24975,2.03194 -20.32004,14.02317 -20.32004,14.02317 -0.34521,0.23885 -0.33182,0.26212 0.0417,0.069 35.41794,-17.86691 78.97379,-18.73761 117.5068,-12.1584 20.8234,3.55542 33.76383,5.82421 38.82126,6.8083 23.86344,4.65001 47.82582,5.21897 71.88442,1.70388 0.22549,-0.0362 0.42733,0.0534 0.43674,0.19394 0.0212,0.31946 -12.54214,3.57056 -13.80194,3.88472 -25.09573,6.28964 -54.06245,8.66188 -80.82758,6.97495 -8.91493,-0.55921 -16.99868,-0.81664 -25.52503,-1.70962 -15.21163,-1.59675 -30.47545,-2.34882 -45.79478,-2.25411 -0.38667,0.006 -0.39611,0.0571 -0.0259,0.15085 l 8.57251,2.24262 c 43.30157,13.61709 74.60712,54.44931 125.17853,35.84308 9.27987,-3.41261 17.53864,-7.59981 24.77653,-12.5621 14.71718,-10.07975 34.89312,-26.02384 54.41615,-37.45214 7.05454,-3.90857 14.34332,-7.34514 21.86443,-10.30942 0.30919,-0.12419 0.29523,-0.17438 -0.0373,-0.14942 -16.23942,1.25418 -32.41132,0.69611 -48.51724,-1.67657 -1.98628,-0.24083 -3.80792,-0.42658 -5.4636,-0.55742 1.65557,0.13063 3.47732,0.31516 5.4636,0.55598 -15.27825,-3.12202 -28.4205,-6.48147 -39.4261,-10.07956 -25.33405,-8.27088 -45.80604,-15.42083 -69.30705,-18.19235 -6.5928,-0.77706 -13.14712,-1.17024 -19.66349,-1.17949 z m -291.04885,0.53156 c -22.27203,0.21263 -44.61428,4.43684 -65.02439,11.35531 -19.30678,6.54351 -36.11048,11.69999 -50.41075,15.46989 -20.98751,4.72042 -40.43869,5.53121 -62.1008,4.3545 -0.33288,-0.0183 -0.34487,0.0387 -0.0359,0.16952 7.90925,3.31137 15.61299,7.00496 23.10858,11.08235 15.30343,9.14632 30.19156,18.91971 44.66413,29.3178 8.80475,6.32112 15.83738,10.37821 25.01359,15.2314 30.26945,16.01613 58.47337,10.08699 87.00519,-6.0871 20.05925,-11.37687 30.65647,-18.01048 48.21124,-24.43174 l 9.3009,-2.71814 c 0.31691,-0.0957 0.31235,-0.14542 -0.0144,-0.14942 -24.11645,-0.52197 -47.3206,2.0493 -70.85865,3.58876 -31.65816,2.06974 -62.66932,-1.32464 -93.03196,-10.183 -1.74322,-0.51119 -0.23898,-0.60814 0.6077,-0.49852 23.35136,2.94675 43.52665,2.29035 68.99675,-1.85328 13.39068,-2.17399 26.76276,-4.4554 40.11425,-6.84422 36.76203,-6.58102 81.85835,-6.2876 115.6607,11.71304 0.29474,0.15707 0.31314,0.13839 0.0532,-0.0575 -7.84353,-5.95736 -15.91902,-11.60022 -24.22486,-16.92665 -9.18423,-6.72462 -17.35124,-12.01846 -24.50069,-15.88365 -22.14167,-11.97877 -47.29215,-16.89037 -72.53379,-16.64938 z m 288.1698,5.82994 c 0.76895,0.008 1.53996,0.0304 2.31014,0.0489 -2.02601,-0.0484 -4.04923,-0.0702 -6.06699,-0.0445 -2.73162,0.0347 -5.4563,0.14459 -8.17456,0.31894 2.71873,-0.1744 5.44245,-0.28426 8.17456,-0.31894 1.25075,-0.0159 2.50299,-0.017 3.75685,-0.004 z m 3.11466,0.0661 c 0.86628,0.0248 1.73676,0.0826 2.60466,0.12067 -0.86796,-0.038 -1.73833,-0.0959 -2.60466,-0.12067 z m -16.31895,0.3491 c -0.86397,0.0625 -1.7275,0.12841 -2.59028,0.20544 0.86259,-0.077 1.7265,-0.14292 2.59028,-0.20544 z m 23.68468,0.0302 c 0.92158,0.0654 1.84626,0.15152 2.76987,0.2313 -0.92374,-0.0798 -1.84815,-0.16586 -2.76987,-0.2313 z m -27.81075,0.32325 c -0.78674,0.0782 -1.57315,0.16092 -2.35898,0.25141 0.78579,-0.0905 1.57228,-0.17319 2.35898,-0.25141 z m 35.02132,0.33761 c 0.96097,0.10615 1.92431,0.22371 2.88767,0.3448 -0.96333,-0.12108 -1.92672,-0.23866 -2.88767,-0.3448 z m -39.10285,0.12212 c -0.78539,0.0996 -1.57011,0.2069 -2.35468,0.31894 0.78448,-0.11202 1.56937,-0.21939 2.35468,-0.31894 z m -3.93643,0.55167 c -0.81221,0.12481 -1.62372,0.25956 -2.43513,0.39796 0.81146,-0.13841 1.62287,-0.27314 2.43513,-0.39796 z m 50.32311,0.27297 c 0.98,0.14532 1.96105,0.29382 2.9437,0.45398 -0.98286,-0.16019 -1.96349,-0.30864 -2.9437,-0.45398 z m -54.31126,0.3922 c -0.90264,0.16378 -1.8049,0.34207 -2.70666,0.52295 0.90187,-0.18091 1.80391,-0.35915 2.70666,-0.52295 z m -3.93644,0.76574 c -1.32037,0.27641 -2.63921,0.56838 -3.95798,0.88211 -1.31963,0.31393 -2.63829,0.64951 -3.95654,1.00134 1.31819,-0.35181 2.63697,-0.68743 3.95654,-1.00134 1.31837,-0.31363 2.63801,-0.60577 3.95798,-0.88211 z m 65.60768,0.0704 c 0.96954,0.1788 1.93834,0.35039 2.91066,0.54305 -0.9726,-0.19272 -1.94083,-0.3642 -2.91066,-0.54305 z m 7.64443,1.54584 c 0.87086,0.19137 1.73862,0.36835 2.61184,0.57035 -0.87325,-0.20201 -1.74095,-0.37898 -2.61184,-0.57035 z m -283.8196,0.51145 c 2.64294,0.72275 5.25996,1.51538 7.85562,2.3676 2.59567,0.85222 5.16947,1.76438 7.72489,2.72821 -2.55542,-0.96383 -5.12922,-1.87599 -7.72489,-2.72821 -2.59566,-0.85222 -5.21268,-1.64485 -7.85562,-2.3676 z m 201.4548,0.0905 c -0.91085,0.25118 -1.8222,0.5062 -2.73252,0.77579 0.91045,-0.26963 1.82154,-0.52458 2.73252,-0.77579 z m -4.20653,1.2269 c -0.82134,0.25233 -1.64284,0.50681 -2.46386,0.77435 0.82099,-0.26754 1.64254,-0.52202 2.46386,-0.77435 z m -4.07147,1.31166 c -0.78947,0.26694 -1.57837,0.54056 -2.36761,0.82177 0.78924,-0.28121 1.57815,-0.55483 2.36761,-0.82177 z m -3.94218,1.39212 c -0.80268,0.29576 -1.6053,0.60012 -2.40783,0.91084 0.80243,-0.31068 1.60526,-0.61512 2.40783,-0.91084 z m -3.96517,1.51998 c -0.8078,0.3226 -1.61588,0.65763 -2.42363,0.9956 0.80785,-0.33801 1.61572,-0.67296 2.42363,-0.9956 z m -3.97234,1.64497 c -0.8641,0.37212 -1.72759,0.7608 -2.59173,1.15076 0.86406,-0.38992 1.72771,-0.77867 2.59173,-1.15076 z m -3.92494,1.74984 c -1.30721,0.60383 -2.61451,1.22528 -3.92207,1.87053 -0.0129,0.006 -0.0359,0.018 -0.0488,0.0244 0.0155,-0.008 0.0333,-0.0182 0.0488,-0.0259 1.30743,-0.64518 2.615,-1.26532 3.92207,-1.86909 z m -26.68154,39.05113 c -3.41408,-0.031 -6.91618,0.0863 -10.52493,0.35629 -9.08999,0.68 -20.64012,2.65893 -28.46011,8.18893 -0.60139,0.1738 -1.16522,0.22375 -1.4108,0.54018 -0.14849,0.21008 -0.0413,0.51331 0.21981,0.62063 15.73999,6.36 23.14119,18.83034 35.25118,34.59032 20.10998,26.17998 44.21986,43.69933 77.66982,48.37932 29.44997,4.13 59.22886,-0.89015 83.58884,-18.56013 8.03999,-6.14666 14.33384,-13.74638 18.8805,-22.7997 0.14667,-0.3 0.06,-0.40707 -0.26003,-0.32037 -5.12999,1.35 -10.67006,3.12029 -15.50006,3.86029 -36.49996,5.58999 -65.78968,-15.47993 -95.15965,-34.00991 -20.85998,-13.15124 -40.39602,-20.62888 -64.29457,-20.84585 z m -96.28886,1.3562 c -19.06623,0.32875 -37.05504,5.18556 -53.96503,14.57055 -28.99997,16.09998 -51.65918,36.56086 -83.89915,40.78086 -12.47999,1.63332 -24.81633,0.33281 -37.00964,-3.90052 -0.91333,-0.31333 -1.15453,-0.0397 -0.7212,0.82033 4.16666,8.29999 10.16455,15.44586 17.99121,21.43919 13.16666,9.63332 27.84927,15.75038 44.04925,18.35038 44.05995,7.05999 86.03983,-5.82003 114.7398,-40.87999 5.24667,-6.41332 11.41313,-14.26297 18.4998,-23.54963 6.71999,-8.79999 12.11097,-14.11007 21.50096,-18.04007 0.23158,-0.0982 0.29567,-0.39015 0.11924,-0.54018 -0.30667,-0.26 -0.68932,-0.45713 -1.14932,-0.59046 -1.48,-2.93 -18.97092,-7.03953 -20.73092,-7.27953 -6.59499,-0.89666 -13.06959,-1.29051 -19.425,-1.18093 z m -180.51556,6.98214 c 2.77755,0.83494 5.54763,1.60041 8.31248,2.29146 2.76484,0.69106 5.52485,1.3073 8.28374,1.8461 -2.75889,-0.5388 -5.5189,-1.15504 -8.28374,-1.8461 -2.76485,-0.69105 -5.53493,-1.45652 -8.31248,-2.29146 z m 380.3297,1.95098 c 2.34207,0.57361 4.67008,1.07839 6.98358,1.5171 2.3135,0.43872 4.61295,0.81083 6.90025,1.12059 2.25215,0.30501 4.49163,0.54699 6.72066,0.7327 -2.22893,-0.1857 -4.46861,-0.42771 -6.72066,-0.7327 -2.2873,-0.30975 -4.58675,-0.68188 -6.90025,-1.12059 -2.3135,-0.43871 -4.64151,-0.94349 -6.98358,-1.5171 z m 20.81999,3.38763 c 2.22607,0.18177 4.44208,0.30784 6.6474,0.3764 2.24201,0.0697 4.47334,0.0831 6.69624,0.0417 2.183,-0.0407 4.35701,-0.13513 6.52385,-0.27727 -2.16674,0.14215 -4.34095,0.23659 -6.52385,0.27727 -2.2229,0.0414 -4.45424,0.028 -6.69624,-0.0417 -2.2054,-0.0686 -4.42124,-0.19463 -6.6474,-0.3764 z m -167.33714,1.11197 -8.5524,0.70396 c -0.32572,0.0258 -0.5563,0.32301 -0.4899,0.63069 8.63999,38.55996 3.02506,79.74948 -11.79493,116.19944 -2.97999,7.33999 -7.25993,14.90919 -11.15993,22.19918 -0.10332,0.17929 0.0501,0.40157 0.2701,0.39077 l 25.00065,-0.0805 c 0.26985,10e-4 0.52069,-0.19029 0.62925,-0.47985 16.28999,-42.92995 20.96714,-92.59336 8.12715,-137.96331 -0.28484,-1.00303 -1.13606,-1.67433 -2.02999,-1.60043 z m 104.87574,44.27336 c 2.12716,1.46724 4.27109,2.88567 6.43765,4.24675 -2.16656,-1.36108 -4.31049,-2.77951 -6.43765,-4.24675 z"
            inkscape:label="outline"
            style="stroke:#000000;stroke-width:3.67783;stroke-linecap:round;stroke-linejoin:round;stroke-dasharray:none;paint-order:markers stroke fill"/>
    </g>
    <metadata
        id="metadata6107">
        <rdf:RDF>
            <cc:Work
                rdf:about="">
                <dc:title>ThreeLeaf.com Logo</dc:title>
                <dc:date>2023-06-23</dc:date>
                <dc:creator>
                    <cc:Agent>
                        <dc:title>John A. Marsh</dc:title>
                    </cc:Agent>
                </dc:creator>
                <dc:rights>
                    <cc:Agent>
                        <dc:title>Copyright 2023</dc:title>
                    </cc:Agent>
                </dc:rights>
                <dc:language>English</dc:language>
                <dc:subject>
                    <rdf:Bag>
                        <rdf:li>Company Logo</rdf:li>
                        <rdf:li>Logo</rdf:li>
                        <rdf:li>Trademark</rdf:li>
                    </rdf:Bag>
                </dc:subject>
                <dc:description>The ThreeLeaf.com logo redesign for 2023. Features and abstract representation of a maple leaf in rainbow colors.</dc:description>
                <dc:contributor>
                    <cc:Agent>
                        <dc:title>MidJourney
                            https://vectorizer.ai/
                            And a lot of editing by John A. Marsh :-)
                        </dc:title>
                    </cc:Agent>
                </dc:contributor>
                <cc:license
                    rdf:resource="https://threeleaf.com/copyright"/>
            </cc:Work>
        </rdf:RDF>
    </metadata>
    <g
        id="g6713"
        inkscape:label="silhouette"
        transform="matrix(1.3594958,0,0,1.3594958,-196.12574,-171.78058)"
        style="display:inline">
        <path
            id="path6611"
            d="m 512.15365,157.49988 c -0.03,0.002 -0.0605,0.0862 -0.0905,0.25285 -1.65332,9.25332 -3.75645,18.4001 -6.30978,27.44009 0.497,0.51141 -0.13137,5.68742 -0.6192,8.99776 0.48747,-3.31051 1.11471,-8.48641 0.61776,-8.99776 -7.48662,23.0199 -17.8323,44.67318 -31.0389,64.95974 -12.90995,18.61991 -25.23072,44.31997 -22.98072,67.51987 0.02,15.0599 5.66155,30.01979 13.4715,42.85969 13.39995,22.0299 27.23841,43.02954 37.28836,66.9294 0.22666,0.53333 0.30802,0.52461 0.24135,-0.0287 l -0.44967,-3.93069 c -1.0933,-29.83997 -1.42997,-49.0858 -1.00997,-57.73912 1.95,-39.96996 5.59979,-79.83021 9.60978,-119.63017 0.19333,-1.92667 0.56583,-7.26681 1.11916,-16.02013 0.007,-0.0667 0.0131,-0.10362 0.0201,-0.11062 l 0.19107,-0.0603 c 0.0814,-0.0321 0.17058,0.0968 0.17958,0.26003 2.65,46.77995 10.01045,93.5708 10.49045,140.30075 0.16,14.87999 -0.33452,32.85581 -1.48119,53.92912 v 10e-4 l -0.52007,3.43935 c -0.08,0.51333 -0.005,0.52692 0.22125,0.0402 8.57999,-18.3399 17.56553,-34.6341 26.95881,-48.88071 6.57329,-9.97995 11.4664,-17.98274 14.67973,-24.00936 6.69328,-12.17995 10.25485,-25.20659 10.68152,-39.07986 0.15,-31.13985 -14.21141,-52.27919 -30.45132,-78.03905 -4.67999,-7.42665 -10.03825,-18.27572 -16.86488,-34.01565 -0.40118,-0.3656 -4.75085,-12.71301 -7.62288,-21.20214 -2.50182,-8.18976 -4.59349,-16.50045 -6.24226,-24.94319 -0.03,-0.16333 -0.0591,-0.24446 -0.0891,-0.24279 z m -14.9728,70.66757 c -2.69167,10.39332 -5.56711,20.73794 -8.62711,31.0346 3.06,-10.29662 5.93534,-20.64141 8.62711,-31.0346 z m 33.42519,12.53481 c 2.83592,10.35824 5.84052,20.67139 8.96472,30.95127 -3.12431,-10.28025 -6.12881,-20.59273 -8.96472,-30.95127 z m -88.68178,56.29672 c -0.12666,-0.0533 -0.35287,0.0939 -0.67953,0.44392 -5.35333,5.70666 -10.11029,11.8644 -14.27029,18.47106 h -0.001 c -11.78662,18.59327 -19.03617,38.84232 -21.7495,60.74891 -4.32997,31.27991 2.85024,61.87148 23.90018,85.8214 11.35996,12.92664 20.3687,23.56966 27.02202,31.92963 20.87994,28.85992 37.03882,60.77022 49.80879,93.9701 0.33333,0.87334 0.47623,0.84422 0.42956,-0.0891 l -0.46835,-9.63133 c -5.8e-4,-0.001 -8.6e-4,-0.003 -10e-4,-0.004 0.0798,-23.41186 -1.08651,-46.73799 -3.49969,-69.97654 -3.02,-30.49991 -10.55011,-60.50075 -23.37005,-87.98069 -6.17,-13.19994 -14.10003,-25.96945 -22.60001,-41.0294 -13.07996,-23.1666 -18.31646,-47.91929 -15.70981,-74.2592 -1.56499,6.51997 -2.53176,12.41746 -2.9006,17.69239 0.36875,-5.27499 1.3356,-11.1724 2.9006,-17.69239 l 1.27001,-7.65018 c 0.0733,-0.45667 0.0462,-0.71097 -0.0805,-0.7643 z m 142.69709,2.06734 c -0.0683,0.0383 -0.10108,0.1679 -0.0977,0.3879 0.0267,2.54667 0.48246,4.99659 1.36913,7.34992 1.88,17.03996 0.29708,33.55834 -4.74958,49.55163 -7.09999,22.44996 -21.04982,39.8582 -31.9598,60.86816 -14.97331,28.84661 -23.88033,59.63783 -26.72033,92.3711 -2.96999,25.14991 -3.55085,50.24935 -3.96085,75.53926 l -0.43962,4.26974 c -0.0467,0.39333 0.0808,0.52071 0.38071,0.38071 0.14667,-0.06 0.2571,-0.184 0.33044,-0.37066 14.04996,-33.91993 29.7782,-66.1689 51.72816,-95.77884 7.39999,-9.18665 14.99241,-18.21767 22.7724,-27.09099 6.07331,-6.92665 10.24033,-12.11712 12.50032,-15.57045 9.82664,-15.03997 15.12611,-31.81896 15.89945,-50.33892 1.54,-35.76992 -11.01227,-71.94988 -34.42222,-98.99982 l -2.31733,-2.41071 c -0.14,-0.14333 -0.24485,-0.19636 -0.31319,-0.15803 z m -157.1958,17.12779 h 0.001 c 0.0666,0.0571 0.0992,0.1243 0.14654,0.18676 -0.0475,-0.0627 -0.0811,-0.1295 -0.14798,-0.18676 z m 10.23903,11.97882 c 0.0175,2.93332 0.13333,5.84617 0.34624,8.73917 -0.21285,-2.89255 -0.32874,-5.80632 -0.34624,-8.73917 z m -15.81612,4.00108 c -1.6236,4.91081 -2.86918,9.88385 -3.54422,15.18831 0.67499,-5.30499 1.92014,-10.27712 3.54422,-15.18831 z m -3.54422,15.18974 c -0.36334,2.86 -0.6083,5.7191 -0.73414,8.57826 0.12565,-2.85876 0.3709,-5.71874 0.73414,-8.57826 z m -214.14189,1.25851 c -0.0683,0.0483 -0.0323,0.24863 0.10774,0.60196 l 3.94075,9.91004 7.43899,24.94031 c 4.28666,21.23326 8.34128,42.48351 12.16128,63.75008 0.79332,4.39333 1.94469,9.49712 3.45802,15.31043 6.80996,30.49987 24.74016,54.97896 53.59007,67.09892 11.76993,4.94996 26.87158,7.94037 39.88151,9.46036 15.11329,1.76 29.1871,4.57906 42.22039,8.45902 0.32,0.1 0.34915,0.0404 0.0891,-0.17958 l -2.55006,-2.12768 c -36.76659,-30.74661 -69.94334,-64.97199 -99.52995,-102.67191 -2.22999,-2.84999 -25.8401,-33.34977 -25.4101,-33.72977 0.0801,-0.078 0.24176,-0.0368 0.35917,0.0905 12.20997,13.06998 25.88995,24.66949 39.59992,35.70947 16.99997,13.68997 34.33097,27.12079 50.95094,41.27076 17.18663,14.63997 33.7239,29.99249 49.61053,46.05913 0.81333,0.82667 1.01241,0.69733 0.59908,-0.38934 l -2.21532,-5.78253 c -1.62365,-8.24242 -8.49226,-30.12224 -10.25339,-36.51831 -5.48,-27.28994 -18.70112,-53.36907 -40.31108,-70.92904 -11.11331,-9.20664 -23.49713,-16.38447 -37.15043,-21.53113 -7.04665,-2.87333 -19.64168,-8.3801 -37.78831,-16.52008 -17.85996,-8.00666 -33.95499,-18.66179 -48.28163,-31.96843 -0.27667,-0.25667 -0.44887,-0.36152 -0.51719,-0.31319 z m 618.16202,0.46835 c -0.0283,-0.02 -0.0964,0.0217 -0.20975,0.12499 -14.1133,12.59331 -31.06857,23.30946 -50.86186,32.14944 -26.79996,11.96998 -51.60833,19.82104 -72.31829,37.251 -21.19996,18.93996 -34.84166,42.35623 -40.92165,70.24951 -1.76,6.33332 -3.19858,12.78025 -4.31858,19.34023 -2.71331,8.17332 -5.92466,16.17606 -9.63133,24.00936 -0.42666,0.9 -0.28377,1.00365 0.42956,0.31032 14.69328,-14.20663 29.95043,-28.01016 45.77036,-41.41011 29.27988,-23.69992 66.10088,-51.32968 96.88075,-80.66956 -28.08991,36.79988 -60.71064,76.16964 -95.57053,108.59955 -8.47997,7.87997 -19.80941,17.27076 -29.59938,26.03073 l -4.30996,3.70944 c -0.31333,0.2733 -0.2707,0.33631 0.1293,0.18964 18.45998,-6.72 38.54971,-8.52958 57.83969,-11.85958 48.23995,-8.35999 73.19066,-37.73967 81.88065,-84.48962 4.1,-22.03331 8.42006,-44.0245 12.96006,-65.97115 2.26666,-9.56663 5.00381,-18.99585 8.21048,-28.28915 l 3.60025,-9.02937 c 0.0567,-0.14333 0.0685,-0.22567 0.0402,-0.24567 z m -341.77279,2.84745 c 0.58583,2.6075 1.23063,5.18857 1.9323,7.74356 2.83333,10.32999 5.8989,20.81458 9.19889,31.45123 -3.3002,-10.63675 -6.367,-21.11984 -9.20033,-31.44979 -0.70166,-2.55499 -1.34515,-5.13751 -1.93086,-7.745 z m -40.09127,2.09177 c 0.60367,2.81189 1.30568,5.6041 2.1047,8.37569 -0.79917,-2.77208 -1.50095,-5.5633 -2.1047,-8.37569 z m 377.32279,3.86747 c 0.10251,0.005 0.20565,0.0244 0.30745,0.0589 -0.20475,-0.0696 -0.41239,-0.076 -0.61489,-0.0316 0.10133,-0.0222 0.20448,-0.0321 0.30744,-0.0273 z m -608.25342,0.44824 c -0.28,0.02 -0.53034,0.0956 -0.74993,0.22699 0.21959,-0.13143 0.46993,-0.20699 0.74993,-0.22699 z m 237.2907,16.39796 c 1.09227,2.71158 2.28239,5.40273 3.57008,8.074 -1.28748,-2.67091 -2.47795,-5.36278 -3.57008,-8.074 z m 3.57008,8.07544 c 1.28754,2.67088 2.67334,5.32128 4.15624,7.95188 -1.48288,-2.63063 -2.86871,-5.28096 -4.15624,-7.95188 z m 4.15624,7.95331 c 0.74137,1.31513 1.50845,2.62563 2.29865,3.93069 3.59499,5.93498 7.45185,12.00996 11.12689,18.05012 -3.675,-6.04 -7.53333,-12.11513 -11.12833,-18.05012 -0.79041,-1.30542 -1.55564,-2.61519 -2.29721,-3.93069 z m -59.93433,25.41154 c -0.055,-0.007 -0.12159,0.0733 -0.19825,0.23992 -3.41333,7.54666 -5.68986,15.38275 -6.82986,23.5094 -1.75999,6.83333 -2.72922,13.74426 -2.90922,20.73092 -1.23,48.58995 16.79013,87.6091 48.0101,123.74906 21.46998,24.85998 48.30012,55.61037 70.10009,87.41034 1.97333,2.87999 3.8333,5.83318 5.57997,8.85984 0.20666,0.35333 0.27303,0.33299 0.19969,-0.0603 l -1.46969,-7.81971 c -0.80667,-11.63998 -2.29076,-23.10253 -4.45076,-34.38918 -5.91333,-39.76663 -20.27964,-75.89115 -43.09962,-108.37112 -13.70998,-19.49998 -30.43087,-36.46883 -43.32086,-56.66881 -9.89999,-15.51999 -16.66659,-32.34444 -20.29992,-50.47109 l -1.17949,-6.43908 c -0.0333,-0.18 -0.0772,-0.27349 -0.13218,-0.28015 z m 238.51186,0.39508 c -0.0667,0.002 -0.12091,0.10266 -0.16091,0.306 l -0.92951,4.73091 c -0.90462,8.01589 -2.23696,15.52367 -3.9939,22.52817 1.75689,-7.004 3.08933,-14.51275 3.9939,-22.52817 -4.06667,18.27331 -10.26026,34.1833 -18.58025,47.72995 -11.88999,19.34998 -27.08017,36.13993 -40.91016,54.06991 -18.93998,24.57331 -32.4136,51.86396 -40.42026,81.8706 -3.08666,11.53998 -5.29004,22.49927 -6.61004,32.87926 0.39324,-2.04455 0.82388,-4.10791 1.29011,-6.18911 -0.46633,2.08166 -0.89534,4.14555 -1.28867,6.19054 -2.38,11.35997 -4.05249,22.83807 -5.01249,34.43804 l 10e-4,0.003 -1.68951,8.4073 c -0.0533,0.26 -0.007,0.28034 0.13936,0.0603 12.61998,-18.55998 22.18671,-31.98275 28.70003,-40.26941 9.54666,-12.13999 24.8071,-30.29404 45.78042,-54.46068 7.46666,-8.59999 13.86272,-16.70635 19.18938,-24.31968 24.79972,-35.43959 36.98025,-83.1805 26.81084,-126.2201 v -10e-4 c -1.17333,-6.56664 -3.19654,-12.87603 -6.06986,-18.92935 -0.0933,-0.2 -0.17326,-0.29762 -0.23992,-0.29595 z m -159.83207,5.18632 c 1.69064,2.98068 3.27974,5.93074 4.71223,8.82824 -1.4325,-2.8975 -3.0216,-5.84762 -4.71223,-8.82824 z m -35.93789,2.17797 c 3.76999,6.03999 7.40553,11.936 10.93006,17.826 -3.52454,-5.89015 -7.16007,-11.78603 -10.93006,-17.826 z m 187.56522,30.81048 c -0.88315,2.5869 -1.84624,5.13743 -2.88336,7.65736 1.03709,-2.5199 2.00022,-5.07047 2.88336,-7.65736 z M 496.9754,482.47387 c 0.63177,2.56929 1.22585,5.15326 1.78002,7.75075 0.14667,0.67333 0.56518,3.659 1.25851,8.95898 -0.69333,-5.3 -1.11328,-8.28708 -1.25995,-8.96041 -0.55416,-2.5975 -1.1468,-5.18005 -1.77858,-7.74932 z m 309.64347,4.139 c -0.165,0.002 -0.32944,0.27654 -0.49278,0.82321 -9.69999,32.33996 -39.30922,53.45957 -71.20919,61.11957 -20.11998,4.82999 -36.70965,7.91932 -54.52963,14.09932 -6.93332,2.38666 -13.68443,5.21926 -20.25108,8.49924 -18.81994,8.98664 -35.55632,20.89094 -50.20962,35.71091 l -4.12894,4.32002 c -0.23334,0.24667 -0.19748,0.3043 0.10919,0.17096 22.99993,-9.8933 46.99407,-13.23595 71.98067,-10.02928 30.85991,5.96997 60.45803,16.28892 89.77794,-1.45102 26.32991,-15.93997 40.12059,-46.00058 42.76057,-76.01049 0,0 -1e-5,-0.01 0,-0.0101 l 10e-4,0.0101 c 1.46666,-12.42666 0.36327,-24.57263 -3.31006,-36.43929 -0.16666,-0.54333 -0.33351,-0.81481 -0.49851,-0.81315 z m -584.50266,0.1293 c -0.0667,-0.002 -0.13641,0.0819 -0.20975,0.24854 -5.47998,12.83997 -5.27134,28.29924 -3.03134,42.0092 5.93999,41.05988 32.68163,79.3212 77.46151,80.9612 14.58996,-0.14 27.40054,-3.50071 43.00048,-6.9807 25.53992,-5.7 53.01024,-2.45167 78.49016,6.8083 0.29,0.1 7.42028,4.55079 1.0703,-1.37919 -12.66663,-14.71996 -27.68737,-26.45138 -45.06065,-35.19802 -2.62023,-1.40086 -4.89027,-2.52628 -7.51944,-3.51262 -0.006,-0.002 -0.0115,-0.004 -0.0172,-0.006 -21.70498,-10.7142 -43.85962,-14.76423 -67.23397,-19.833 -33.83997,-7.35 -62.59917,-26.0897 -75.51915,-59.35967 l -1.23984,-3.50113 c -0.06,-0.17 -0.12441,-0.2555 -0.19107,-0.25716 z m 0.99847,3.71806 c -0.11671,0.005 -0.23456,0.018 -0.35772,0.0503 a 0.52,0.47 73.1 0 0 -0.28159,0.2471 0.52,0.47 73.1 0 0 -0.0187,0.40226 c 0.21666,0.67667 0.44505,1.60108 0.68672,2.77275 -0.24196,-1.1715 -0.4715,-2.09609 -0.68816,-2.77275 -0.0467,-0.14048 -0.0346,-0.28398 0.0201,-0.40226 0.0548,-0.1178 0.15327,-0.21188 0.28159,-0.24854 0.12273,-0.0321 0.24118,-0.0437 0.35772,-0.0488 z m 585.59164,4.9033 c 0.0543,-0.003 0.10777,0.009 0.1566,0.0316 0.0976,0.0459 0.1751,0.13797 0.19395,0.26003 -0.0179,-0.1136 -0.0913,-0.21163 -0.19395,-0.26003 -0.10326,-0.0484 -0.22212,-0.0403 -0.31606,0.0215 -0.25,0.17 -0.54704,0.42667 -0.81315,0.71402 0.26625,-0.2875 0.56315,-0.54546 0.81315,-0.71546 0.0503,-0.0329 0.10517,-0.049 0.15946,-0.0517 z m -308.30593,6.23652 c 0.30504,1.60119 0.70611,3.18503 1.20104,4.74958 -0.495,-1.565 -0.89604,-3.14792 -1.20104,-4.74958 z m 304.09366,1.13352 c -0.0299,0.0616 -0.0591,0.1238 -0.0891,0.18533 0.03,-0.0615 0.0591,-0.12369 0.0891,-0.18533 z m 5.71501,2.51271 c 0.37984,5.17677 0.37173,10.37495 -0.0302,15.59487 l -10e-4,10e-4 c 0.40198,-5.21994 0.41112,-10.41923 0.0316,-15.59631 z m -11.61247,8.20329 c -1.06406,1.7063 -2.16268,3.36236 -3.29856,4.96508 1.1361,-1.60305 2.23431,-3.2584 3.29856,-4.96508 z m -565.44832,4.78693 c 0.0286,0.0427 0.0575,0.0852 0.0862,0.12786 -0.0287,-0.0426 -0.0576,-0.0852 -0.0862,-0.12786 z m 560.44302,2.50983 c -1.15552,1.52984 -2.34688,3.01043 -3.57583,4.4407 1.22893,-1.43026 2.42033,-2.91087 3.57583,-4.4407 z m -7.37578,8.58258 c -1.30482,1.33143 -2.64815,2.61403 -4.03125,3.84735 1.38307,-1.23331 2.72645,-2.51593 4.03125,-3.84735 z m -540.15603,3.85885 c 0.0339,0.0307 0.068,0.0613 0.10201,0.0919 -0.034,-0.0306 -0.0681,-0.0613 -0.10201,-0.0919 z m 534.02008,1.80156 c -1.42315,1.18455 -2.88679,2.32022 -4.39185,3.40775 -3.76266,2.71881 -7.78548,5.13613 -12.08657,7.25653 -1.72044,0.84816 -3.48468,1.6484 -5.29551,2.40209 -1.81082,0.75368 -3.66771,1.46056 -5.57134,2.1205 -1.90364,0.65994 -3.85407,1.27344 -5.85293,1.84035 -1.03184,0.29265 -2.07852,0.571 -3.13622,0.83901 1.0581,-0.2681 2.10401,-0.54625 3.13622,-0.83901 1.99885,-0.56691 3.94931,-1.18042 5.85293,-1.84035 1.90362,-0.65993 3.76053,-1.36683 5.57134,-2.1205 1.81081,-0.75367 3.57509,-1.55394 5.29551,-2.40209 4.30104,-2.12036 8.32397,-4.53776 12.08657,-7.25653 1.50503,-1.08752 2.96872,-2.22322 4.39185,-3.40775 z m -526.26502,4.39473 c 0.0421,0.0297 0.0842,0.0594 0.12643,0.0891 -0.0422,-0.0296 -0.0843,-0.0594 -0.12643,-0.0891 z m 4.20509,2.7828 c 0.0228,0.0141 0.0447,0.029 0.0675,0.0431 3.1275,1.84875 6.24229,3.46079 9.36842,4.87744 -3.1261,-1.41661 -6.24093,-3.02725 -9.36842,-4.876 -0.0231,-0.0143 -0.0445,-0.0302 -0.0675,-0.0445 z m 22.0512,9.64856 c 1.10115,0.33534 2.20694,0.65256 3.31867,0.95681 -1.11106,-0.30406 -2.21818,-0.62171 -3.31867,-0.95681 z m 457.56853,2.4222 c -0.0284,0.006 -0.0549,0.013 -0.0833,0.0187 -0.0841,0.0168 -0.19279,0.0363 -0.27728,0.0531 0.0933,-0.0186 0.18545,-0.036 0.27871,-0.0546 0.0276,-0.006 0.0543,-0.0117 0.0819,-0.0172 z m -147.95955,2.81728 c -3.47515,4.05875 -6.90338,8.15859 -10.18588,12.38108 -2.24999,2.895 -4.46039,5.81904 -6.62728,8.77365 2.16686,-2.95458 4.37585,-5.87866 6.62585,-8.77365 3.28248,-4.22248 6.71209,-8.32224 10.18731,-12.38108 z m -265.18333,2.76987 c 4.13666,0.58 7.75295,1.1283 10.84961,1.64497 1.26583,0.21083 2.53515,0.43855 3.80713,0.68241 -1.27199,-0.24382 -2.5413,-0.47014 -3.80713,-0.68098 -3.09666,-0.51666 -6.71287,-1.06628 -10.84961,-1.6464 z m 209.65522,46.29186 c -2.27502,6.68446 -4.22205,13.20409 -5.84,19.55861 1.61802,-6.35458 3.56488,-12.87407 5.84,-19.55861 z m 123.73038,10.06233 c -19.54911,-0.0278 -38.75429,3.39969 -57.61557,10.28213 -16.00305,5.83478 -28.35843,14.68972 -42.63701,25.54802 -3.24975,2.03194 -20.32004,14.02317 -20.32004,14.02317 -0.34521,0.23885 -0.33182,0.26212 0.0417,0.069 35.41794,-17.86691 78.97379,-18.73761 117.5068,-12.1584 20.8234,3.55542 33.76383,5.82421 38.82126,6.8083 23.86344,4.65001 47.82582,5.21897 71.88442,1.70388 0.22549,-0.0362 0.42733,0.0534 0.43674,0.19394 0.0212,0.31946 -12.54214,3.57056 -13.80194,3.88472 -25.09573,6.28964 -54.06245,8.66188 -80.82758,6.97495 -8.91493,-0.55921 -16.99868,-0.81664 -25.52503,-1.70962 -15.21163,-1.59675 -30.47545,-2.34882 -45.79478,-2.25411 -0.38667,0.006 -0.39611,0.0571 -0.0259,0.15085 l 8.57251,2.24262 c 43.30157,13.61709 74.60712,54.44931 125.17853,35.84308 9.27987,-3.41261 17.53864,-7.59981 24.77653,-12.5621 14.71718,-10.07975 34.89312,-26.02384 54.41615,-37.45214 7.05454,-3.90857 14.34332,-7.34514 21.86443,-10.30942 0.30919,-0.12419 0.29523,-0.17438 -0.0373,-0.14942 -16.23942,1.25418 -32.41132,0.69611 -48.51724,-1.67657 -1.98628,-0.24083 -3.80792,-0.42658 -5.4636,-0.55742 1.65557,0.13063 3.47732,0.31516 5.4636,0.55598 -15.27825,-3.12202 -28.4205,-6.48147 -39.4261,-10.07956 -25.33405,-8.27088 -45.80604,-15.42083 -69.30705,-18.19235 -6.5928,-0.77706 -13.14712,-1.17024 -19.66349,-1.17949 z m -291.04885,0.53156 c -22.27203,0.21263 -44.61428,4.43684 -65.02439,11.35531 -19.30678,6.54351 -36.11048,11.69999 -50.41075,15.46989 -20.98751,4.72042 -40.43869,5.53121 -62.1008,4.3545 -0.33288,-0.0183 -0.34487,0.0387 -0.0359,0.16952 7.90925,3.31137 15.61299,7.00496 23.10858,11.08235 15.30343,9.14632 30.19156,18.91971 44.66413,29.3178 8.80475,6.32112 15.83738,10.37821 25.01359,15.2314 30.26945,16.01613 58.47337,10.08699 87.00519,-6.0871 20.05925,-11.37687 30.65647,-18.01048 48.21124,-24.43174 l 9.3009,-2.71814 c 0.31691,-0.0957 0.31235,-0.14542 -0.0144,-0.14942 -24.11645,-0.52197 -47.3206,2.0493 -70.85865,3.58876 -31.65816,2.06974 -62.66932,-1.32464 -93.03196,-10.183 -1.74322,-0.51119 -0.23898,-0.60814 0.6077,-0.49852 23.35136,2.94675 43.52665,2.29035 68.99675,-1.85328 13.39068,-2.17399 26.76276,-4.4554 40.11425,-6.84422 36.76203,-6.58102 81.85835,-6.2876 115.6607,11.71304 0.29474,0.15707 0.31314,0.13839 0.0532,-0.0575 -7.84353,-5.95736 -15.91902,-11.60022 -24.22486,-16.92665 -9.18423,-6.72462 -17.35124,-12.01846 -24.50069,-15.88365 -22.14167,-11.97877 -47.29215,-16.89037 -72.53379,-16.64938 z m 288.1698,5.82994 c 0.76895,0.008 1.53996,0.0304 2.31014,0.0489 -2.02601,-0.0484 -4.04923,-0.0702 -6.06699,-0.0445 -2.73162,0.0347 -5.4563,0.14459 -8.17456,0.31894 2.71873,-0.1744 5.44245,-0.28426 8.17456,-0.31894 1.25075,-0.0159 2.50299,-0.017 3.75685,-0.004 z m 3.11466,0.0661 c 0.86628,0.0248 1.73676,0.0826 2.60466,0.12067 -0.86796,-0.038 -1.73833,-0.0959 -2.60466,-0.12067 z m -16.31895,0.3491 c -0.86397,0.0625 -1.7275,0.12841 -2.59028,0.20544 0.86259,-0.077 1.7265,-0.14292 2.59028,-0.20544 z m 23.68468,0.0302 c 0.92158,0.0654 1.84626,0.15152 2.76987,0.2313 -0.92374,-0.0798 -1.84815,-0.16586 -2.76987,-0.2313 z m -27.81075,0.32325 c -0.78674,0.0782 -1.57315,0.16092 -2.35898,0.25141 0.78579,-0.0905 1.57228,-0.17319 2.35898,-0.25141 z m 35.02132,0.33761 c 0.96097,0.10615 1.92431,0.22371 2.88767,0.3448 -0.96333,-0.12108 -1.92672,-0.23866 -2.88767,-0.3448 z m -39.10285,0.12212 c -0.78539,0.0996 -1.57011,0.2069 -2.35468,0.31894 0.78448,-0.11202 1.56937,-0.21939 2.35468,-0.31894 z m -3.93643,0.55167 c -0.81221,0.12481 -1.62372,0.25956 -2.43513,0.39796 0.81146,-0.13841 1.62287,-0.27314 2.43513,-0.39796 z m 50.32311,0.27297 c 0.98,0.14532 1.96105,0.29382 2.9437,0.45398 -0.98286,-0.16019 -1.96349,-0.30864 -2.9437,-0.45398 z m -54.31126,0.3922 c -0.90264,0.16378 -1.8049,0.34207 -2.70666,0.52295 0.90187,-0.18091 1.80391,-0.35915 2.70666,-0.52295 z m -3.93644,0.76574 c -1.32037,0.27641 -2.63921,0.56838 -3.95798,0.88211 -1.31963,0.31393 -2.63829,0.64951 -3.95654,1.00134 1.31819,-0.35181 2.63697,-0.68743 3.95654,-1.00134 1.31837,-0.31363 2.63801,-0.60577 3.95798,-0.88211 z m 65.60768,0.0704 c 0.96954,0.1788 1.93834,0.35039 2.91066,0.54305 -0.9726,-0.19272 -1.94083,-0.3642 -2.91066,-0.54305 z m 7.64443,1.54584 c 0.87086,0.19137 1.73862,0.36835 2.61184,0.57035 -0.87325,-0.20201 -1.74095,-0.37898 -2.61184,-0.57035 z m -283.8196,0.51145 c 2.64294,0.72275 5.25996,1.51538 7.85562,2.3676 2.59567,0.85222 5.16947,1.76438 7.72489,2.72821 -2.55542,-0.96383 -5.12922,-1.87599 -7.72489,-2.72821 -2.59566,-0.85222 -5.21268,-1.64485 -7.85562,-2.3676 z m 201.4548,0.0905 c -0.91085,0.25118 -1.8222,0.5062 -2.73252,0.77579 0.91045,-0.26963 1.82154,-0.52458 2.73252,-0.77579 z m -4.20653,1.2269 c -0.82134,0.25233 -1.64284,0.50681 -2.46386,0.77435 0.82099,-0.26754 1.64254,-0.52202 2.46386,-0.77435 z m -4.07147,1.31166 c -0.78947,0.26694 -1.57837,0.54056 -2.36761,0.82177 0.78924,-0.28121 1.57815,-0.55483 2.36761,-0.82177 z m -3.94218,1.39212 c -0.80268,0.29576 -1.6053,0.60012 -2.40783,0.91084 0.80243,-0.31068 1.60526,-0.61512 2.40783,-0.91084 z m -3.96517,1.51998 c -0.8078,0.3226 -1.61588,0.65763 -2.42363,0.9956 0.80785,-0.33801 1.61572,-0.67296 2.42363,-0.9956 z m -3.97234,1.64497 c -0.8641,0.37212 -1.72759,0.7608 -2.59173,1.15076 0.86406,-0.38992 1.72771,-0.77867 2.59173,-1.15076 z m -3.92494,1.74984 c -1.30721,0.60383 -2.61451,1.22528 -3.92207,1.87053 -0.0129,0.006 -0.0359,0.018 -0.0488,0.0244 0.0155,-0.008 0.0333,-0.0182 0.0488,-0.0259 1.30743,-0.64518 2.615,-1.26532 3.92207,-1.86909 z m -26.68154,39.05113 c -3.41408,-0.031 -6.91618,0.0863 -10.52493,0.35629 -9.08999,0.68 -20.64012,2.65893 -28.46011,8.18893 -0.60139,0.1738 -1.16522,0.22375 -1.4108,0.54018 -0.14849,0.21008 -0.0413,0.51331 0.21981,0.62063 15.73999,6.36 23.14119,18.83034 35.25118,34.59032 20.10998,26.17998 44.21986,43.69933 77.66982,48.37932 29.44997,4.13 59.22886,-0.89015 83.58884,-18.56013 8.03999,-6.14666 14.33384,-13.74638 18.8805,-22.7997 0.14667,-0.3 0.06,-0.40707 -0.26003,-0.32037 -5.12999,1.35 -10.67006,3.12029 -15.50006,3.86029 -36.49996,5.58999 -65.78968,-15.47993 -95.15965,-34.00991 -20.85998,-13.15124 -40.39602,-20.62888 -64.29457,-20.84585 z m -96.28886,1.3562 c -19.06623,0.32875 -37.05504,5.18556 -53.96503,14.57055 -28.99997,16.09998 -51.65918,36.56086 -83.89915,40.78086 -12.47999,1.63332 -24.81633,0.33281 -37.00964,-3.90052 -0.91333,-0.31333 -1.15453,-0.0397 -0.7212,0.82033 4.16666,8.29999 10.16455,15.44586 17.99121,21.43919 13.16666,9.63332 27.84927,15.75038 44.04925,18.35038 44.05995,7.05999 86.03983,-5.82003 114.7398,-40.87999 5.24667,-6.41332 11.41313,-14.26297 18.4998,-23.54963 6.71999,-8.79999 12.11097,-14.11007 21.50096,-18.04007 0.23158,-0.0982 0.29567,-0.39015 0.11924,-0.54018 -0.30667,-0.26 -0.68932,-0.45713 -1.14932,-0.59046 -1.48,-2.93 -18.97092,-7.03953 -20.73092,-7.27953 -6.59499,-0.89666 -13.06959,-1.29051 -19.425,-1.18093 z m -180.51556,6.98214 c 2.77755,0.83494 5.54763,1.60041 8.31248,2.29146 2.76484,0.69106 5.52485,1.3073 8.28374,1.8461 -2.75889,-0.5388 -5.5189,-1.15504 -8.28374,-1.8461 -2.76485,-0.69105 -5.53493,-1.45652 -8.31248,-2.29146 z m 380.3297,1.95098 c 2.34207,0.57361 4.67008,1.07839 6.98358,1.5171 2.3135,0.43872 4.61295,0.81083 6.90025,1.12059 2.25215,0.30501 4.49163,0.54699 6.72066,0.7327 -2.22893,-0.1857 -4.46861,-0.42771 -6.72066,-0.7327 -2.2873,-0.30975 -4.58675,-0.68188 -6.90025,-1.12059 -2.3135,-0.43871 -4.64151,-0.94349 -6.98358,-1.5171 z m 20.81999,3.38763 c 2.22607,0.18177 4.44208,0.30784 6.6474,0.3764 2.24201,0.0697 4.47334,0.0831 6.69624,0.0417 2.183,-0.0407 4.35701,-0.13513 6.52385,-0.27727 -2.16674,0.14215 -4.34095,0.23659 -6.52385,0.27727 -2.2229,0.0414 -4.45424,0.028 -6.69624,-0.0417 -2.2054,-0.0686 -4.42124,-0.19463 -6.6474,-0.3764 z m -167.33714,1.11197 -8.5524,0.70396 c -0.32572,0.0258 -0.5563,0.32301 -0.4899,0.63069 8.63999,38.55996 3.02506,79.74948 -11.79493,116.19944 -2.97999,7.33999 -7.25993,14.90919 -11.15993,22.19918 -0.10332,0.17929 0.0501,0.40157 0.2701,0.39077 l 25.00065,-0.0805 c 0.26985,10e-4 0.52069,-0.19029 0.62925,-0.47985 16.28999,-42.92995 20.96714,-92.59336 8.12715,-137.96331 -0.28484,-1.00303 -1.13606,-1.67433 -2.02999,-1.60043 z m 104.87574,44.27336 c 2.12716,1.46724 4.27109,2.88567 6.43765,4.24675 -2.16656,-1.36108 -4.31049,-2.77951 -6.43765,-4.24675 z"
            inkscape:label="silhouette"
            style="display:inline"/>
    </g>
    <g
        id="g6963"
        inkscape:label="leaf"
        transform="matrix(1.3594958,0,0,1.3594958,-196.12621,-171.78058)"
        style="display:inline">
        <g
            id="g6891"
            inkscape:label="right"
            style="display:inline"
            transform="translate(0.36772824,-10.297935)">
            <g
                id="g6865"
                style="display:inline"
                inkscape:label="orange bottom"
                transform="translate(-4,4)">
                <path
                    fill="#f59412"
                    d="m 721.82,756.28 -10.03037,5.57271 c -0.31333,0.15333 -3.41972,1.09179 -3.73972,1.07179 -3.2,-0.16 -3.49991,-0.1145 -6.17991,0.1155 -48.43,4.15 -78.15,-23.26 -112.18,-51.96 -17.44,-14.7 -39.56,-26.47 -63.19,-20.37 7.82,-5.53 19.37,-7.51 28.46,-8.19 28.87,-2.16 50.98,5.46 74.82,20.49 29.37,18.53 58.66,39.6 95.16,34.01 4.83,-0.74 10.37,-2.51 15.5,-3.86 0.32,-0.0867 0.40667,0.02 0.26,0.32 -4.54667,9.05333 -10.84,16.65333 -18.88,22.8 z"
                    id="path6861"
                    sodipodi:nodetypes="cccccccccccc"/>
                <path
                    fill="#bc5d20"
                    d="m 721.82,756.28 c -24.36,17.67 -54.14,22.69 -83.59,18.56 -33.45,-4.68 -57.56,-22.2 -77.67,-48.38 -12.11,-15.76 -19.51,-28.23 -35.25,-34.59 -0.26111,-0.10732 -0.36849,-0.40992 -0.22,-0.62 0.24558,-0.31643 0.80861,-0.3662 1.41,-0.54 23.63,-6.1 45.75,5.67 63.19,20.37 34.03,28.7 63.75,56.11 112.18,51.96 4.00348,-0.55628 6.50151,-0.96628 9.60792,-1.98946 3.60588,-1.18769 8.93494,-5.37709 10.34208,-4.77054 z"
                    id="path6863"
                    sodipodi:nodetypes="ccccccccac"/>
            </g>
            <g
                id="g6873"
                style="display:inline"
                inkscape:label="orange"
                transform="rotate(-2,959.18661,784.40341)">
                <path
                    fill="#d47223"
                    d="m 790.5,649.96 c -3.95333,-0.62 -7.25333,-0.99667 -9.9,-1.13 -6.36143,-0.0394 -10.23968,-0.489 -14.3,-1.88 -19.23,-4.14 -37.74,-10.06 -56.55,-15.71 -41.56,-12.47 -80.62,-13.26 -120.55,4.74 -4.79,2.16 -11.40383,7.1529 -19.22383,10.1829 -1.72,0.66667 -2.78291,1.28297 -4.45273,2.23673 -0.2571,0.21862 -1.77689,1.01118 -2.08653,1.00508 l -1.81036,-0.95053 C 576.33655,638.05418 589.02,629.6 605.27,624.31 c 25.45333,-8.29333 51.30333,-10.42667 77.55,-6.4 23.39,3.59 43.6,11.45 68.63,20.6 10.87333,3.98 23.89,7.79667 39.05,11.45 z"
                    id="path6867"
                    sodipodi:nodetypes="ccccccccccccc"/>
                <path
                    id="path6869"
                    d="m 656.35547,622.17578 c -22.50984,-0.50012 -44.69565,3.6797 -67.15625,13.80469 -4.79,2.16 -12.58125,6.00296 -20.04216,9.26277 -1.07364,0.58049 -3.14224,1.77119 -4.38114,2.48076 -0.38605,0.21838 -1.39216,0.81414 -1.56836,0.84716 -0.1762,0.033 -0.67669,0.18462 -1.20756,-0.36022 -2.98283,1.6888 -21.0293,13.44922 -21.0293,13.44922 -0.35333,0.22666 -0.34093,0.25031 0.0391,0.0703 36.01996,-16.61998 79.57941,-15.97077 117.85937,-8.05078 20.68665,4.27999 33.54055,7.00015 38.56055,8.16015 23.68664,5.48 47.61461,6.88427 71.78125,4.21094 0.22662,-0.0283 0.42518,0.0682 0.42968,0.20899 0.01,0.32 -12.65968,3.13039 -13.92968,3.40039 -25.29998,5.40999 -54.33151,6.77038 -81.02149,4.15039 -8.88999,-0.87 -16.95922,-1.40961 -25.44922,-2.59961 -15.14665,-2.12667 -30.37613,-3.41157 -45.68945,-3.85156 -0.38667,-0.007 -0.39792,0.0437 -0.0312,0.15039 l 8.49024,2.54101 c 2.67333,-0.17333 5.19388,0.4162 7.56054,1.76953 0.42089,0.23752 0.81399,0.32628 0.96875,0.21875 l 1.02149,-0.71875 c 0.18249,-0.13075 1.22871,1.01845 1.61874,1.12369 2.44,0.64 3.98118,0.93585 6.05118,1.64585 12.10665,4.17333 25.11598,8.22373 39.0293,12.15039 37.12996,10.47999 71.07027,3.19069 106.24023,-9.52929 2.62666,-1.08 5.29024,-2.06141 7.99023,-2.94141 6.9,-2.27 13.47884,-5.07899 20.54883,-6.95898 0.26289,-0.0723 0.55345,0.0482 0.72071,0.29883 1.37999,1.98999 5.67968,-1.49868 7.42968,-2.13868 1.84,-0.68 3.69389,-1.33117 5.56055,-1.95117 7.18666,-3.66 14.59095,-6.83906 22.21094,-9.53906 0.31333,-0.11333 0.30208,-0.16373 -0.0312,-0.15039 -16.27332,0.68666 -32.41637,-0.43581 -48.42969,-3.36914 -3.95333,-0.62 -7.25373,-0.99753 -9.90039,-1.13086 -6.02307,-0.60683 -10.10328,-1.02891 -14.29883,-1.88086 -19.22998,-4.14 -37.7408,-10.05899 -56.55078,-15.70899 -18.18248,-5.45562 -35.88688,-8.67547 -53.39453,-9.06445 z m 108.63476,51.76367 c 0.0127,0.14609 0.35205,0.40403 0.83008,0.63086 -0.47803,-0.22683 -0.81743,-0.48477 -0.83008,-0.63086 z"
                    style="fill:#f9a506;fill-opacity:1"
                    sodipodi:nodetypes="cccczcccscccccccccccccccccccccccccccscccc"/>
                <path
                    fill="#d47223"
                    d="m 816.75,663.02 c -19.91,10.74 -40.63,25.97 -55.69,35.53 -7.40667,4.70667 -15.80667,8.60333 -25.2,11.69 -51.19,16.83 -81.05,-25.07 -123.85,-40.19 3.58072,-0.85838 7.09882,0.62961 9.82953,1.13024 3.90953,1.34039 5.41906,2.06444 7.67,2.86317 12.10667,4.17333 24.83714,8.26992 38.75047,12.19659 37.13,10.48 71.07,3.19 106.24,-9.53 2.62667,-1.08 5.29,-2.06 7.99,-2.94 6.9,-2.27 13.48,-5.08 20.55,-6.96 2.73495,-0.67145 5.673,-1.3213 8.15,-1.84 1.84,-0.68 3.69333,-1.33 5.56,-1.95 z"
                    id="path6871"
                    sodipodi:nodetypes="cccccccccccc"/>
            </g>
            <g
                id="g6881"
                style="display:inline"
                inkscape:label="yellow"
                transform="translate(1.7690689,14.413402)">
                <path
                    fill="#efb60d"
                    d="m 808.29,519.75 -0.25,-3 c 0.65333,-8.46 0.28,-16.86333 -1.12,-25.21 -0.0377,-0.24412 -0.30893,-0.37176 -0.51,-0.24 -0.5,0.34 -1.19,1.03 -1.44,1.61 -13.68,31.79 -35.21,50.37 -69.55,57.23 -19.94,3.98 -39.91209,7.62057 -55.85587,10.28908 -0.39389,-0.10638 -0.77479,-0.18165 -0.98457,-0.55092 C 678.36977,559.50889 678.25,558.54 678.25,558.54 c 17.82,-6.18 34.41,-9.27 54.53,-14.1 31.9,-7.66 61.51,-28.78 71.21,-61.12 0.32667,-1.09333 0.65667,-1.09667 0.99,-0.01 3.67333,11.86667 4.77667,24.01333 3.31,36.44 z"
                    id="path6875"
                    sodipodi:nodetypes="ccccccczccccc"/>
                <path
                    id="path6877"
                    style="fill:#fbd405;fill-opacity:1"
                    d="m 806.72656,491.2793 c -0.10326,-0.0484 -0.22246,-0.0403 -0.3164,0.0215 -0.5,0.34 -1.18946,1.02938 -1.43946,1.60938 -13.67996,31.78992 -35.21084,50.37048 -69.55078,57.23046 -19.93996,3.98 -51.20493,9.34696 -52.92948,9.68985 -1.72456,0.34289 -3.32004,0.35899 -3.69754,-0.0371 l -0.5429,-1.25434 c -6.93332,2.38667 -13.68335,5.22002 -20.25,8.5 -18.81996,8.98665 -35.55763,20.89096 -50.21094,35.71094 -0.22046,1.40333 1.59967,0.66448 4.92945,-0.66266 0.37333,-0.06 0.42235,-2.47145 0.66235,-2.63812 11.49331,-8.02665 23.94916,-14.10496 37.36914,-18.23828 l 13.75,-3.75 c 22.43996,-3.92 43.62732,0.32406 66.19727,0.41406 37.61629,-4.40465 64.11779,-18.87112 75.12304,-48.61328 L 808.03906,516.75 c 0.65334,-8.45998 0.28086,-16.86429 -1.11914,-25.21094 -0.0179,-0.1136 -0.0907,-0.21136 -0.19336,-0.25976 z"
                    sodipodi:nodetypes="cccczccccccccccccc"/>
                <path
                    id="path6879"
                    style="fill:#d47223;fill-opacity:1"
                    d="m 808.04297,516.72265 c -0.40925,0.0687 -1.23521,6.16219 -1.79685,8.19566 -0.56164,2.03347 -2.04213,6.45453 -3.43557,9.41177 -14.12998,27.98994 -41.26038,40.78015 -71.82032,40.66015 -22.56994,-0.09 -44.05027,-1.44929 -66.49023,2.47071 l -13.75,3.75 c -13.41998,4.13332 -25.87583,10.21163 -37.36914,18.23828 -2.0388,1.1401 -4.4843,3.51082 -5.5918,3.30078 l -4.1289,4.32031 c -0.23334,0.24667 -0.1973,0.30326 0.10937,0.16992 22.99996,-9.89331 46.99385,-13.23596 71.98047,-10.02929 30.85994,5.96998 60.45936,16.28879 89.7793,-1.45117 26.32994,-15.93998 40.11978,-45.99983 42.75976,-76.00977 0,0 0.36188,-3.0423 -0.24609,-3.02735 z"
                    sodipodi:nodetypes="czcccccccccccc"/>
            </g>
            <g
                id="g6889"
                style="display:inline"
                inkscape:label="green"
                transform="translate(-4.6443316,20.413402)">
                <path
                    id="path6883"
                    d="m 826.60156,338.97461 c -0.0283,-0.02 -0.0976,0.0217 -0.21094,0.125 -14.11331,12.59332 -31.06801,23.3104 -50.86132,32.15039 -26.79998,11.96999 -51.60838,19.82002 -72.31836,37.25 l -0.30078,2.19922 a 0.5,1.5 0 0 1 -0.29102,0.87109 c -2.88666,3.24667 -5.58008,6.64899 -8.08008,10.20899 -9.47332,13.51998 -14.95898,21.70102 -16.45898,24.54101 -4,7.54999 -11.12086,20.26064 -14.38086,30.64063 -0.26,0.82 -0.82016,1.21906 -1.41016,1.78906 -1.76,6.33333 -3.19836,12.77985 -4.31836,19.33984 3.86,-8.08665 8.1317,-15.94985 12.81836,-23.58984 14.62999,-25.20997 33.42057,-40.92072 58.56055,-54.7207 11.29999,-6.20666 22.51707,-12.5617 33.65039,-19.06836 22.75998,-13.56999 42.3697,-30.44112 57.67969,-52.1211 0.57,-0.8 1.53125,-1.16984 2.28125,-0.33984 l 3.59961,-9.0293 c 0.0567,-0.14333 0.0693,-0.22609 0.041,-0.24609 z"
                    style="fill:#9ac829;fill-opacity:1"/>
                <path
                    id="path6885"
                    style="fill:#64ba39;fill-opacity:1"
                    d="m 821.75195,347.80859 c -0.405,0.0888 -0.78726,0.38125 -1.07226,0.78125 -15.30998,21.67996 -34.91973,38.55112 -57.67969,52.1211 -11.1333,6.50664 -22.35042,12.8617 -33.65039,19.06836 -25.13994,13.79994 -43.93058,29.51079 -58.56055,54.7207 -4.68664,7.63997 -8.95836,15.50321 -12.81836,23.58984 -2.71331,8.17333 -5.92419,16.17646 -9.63086,24.00977 -0.42666,0.9 -0.28364,1.00388 0.42969,0.31055 14.6933,-14.20664 29.94959,-28.01019 45.76953,-41.41016 29.27991,-23.69994 66.10095,-51.33001 96.88086,-80.66992 -28.08994,36.79992 -60.71039,76.16967 -95.57031,108.59961 -8.47998,7.87998 -19.80963,17.27127 -29.59961,26.03125 -0.1751,1.27758 1.62,1.20914 2.5,0.86914 5.70665,-2.22 14.05747,-5.90102 25.05078,-11.04102 12.01998,-5.61998 24.60401,-10.79314 35.36399,-17.60314 44.1999,-27.95994 67.49066,-77.959 82.14062,-126.1289 0.25334,-0.83334 2.30536,-2.54114 3.44461,-4.51796 2.26666,-9.56664 5.00427,-18.99575 8.21094,-28.28906 -0.375,-0.415 -0.80399,-0.53016 -1.20899,-0.44141 z M 703.21094,408.5 c -21.19998,18.93998 -34.84188,42.35669 -40.92188,70.25 0.59,-0.57 1.15016,-0.96906 1.41016,-1.78906 3.26,-10.37999 10.38086,-23.09064 14.38086,-30.64063 1.5,-2.83999 6.98566,-11.02103 16.45898,-24.54101 2.5,-3.56 5.19342,-6.96232 8.08008,-10.20899 0.13415,-0.15176 0.24013,-0.46898 0.29102,-0.87109 z"
                    sodipodi:nodetypes="sccccccccccccscsccscccccccc"/>
                <path
                    fill="#3e863d"
                    d="m 814.75,376.54 c -4.54,21.94667 -8.86,43.93667 -12.96,65.97 -8.69,46.75 -33.64,76.13 -81.88,84.49 -19.29,3.33 -39.38,5.14 -57.84,11.86 -0.4,0.14667 -0.44333,0.0833 -0.13,-0.19 l 4.31,-3.71 c 0.79181,1.04999 4.09842,-0.24236 4.97842,-0.5824 5.70667,-2.22 11.57825,-4.4476 22.57158,-9.5876 12.02,-5.62 24.14,-11.04 34.9,-17.85 44.2,-27.96 67.49,-77.96 82.14,-126.13 0.25333,-0.83333 2.18038,-5.67337 3.91,-4.27 z"
                    id="path6887"
                    sodipodi:nodetypes="cccccccscsc"/>
            </g>
        </g>
        <g
            id="g6927"
            inkscape:label="center"
            style="display:inline"
            transform="translate(-1.0366085)">
            <g
                id="g6899"
                style="display:inline"
                inkscape:label="green center right bottom"
                transform="translate(-2,7.3556678)">
                <path
                    id="path6893"
                    style="fill:#76b034;fill-opacity:1"
                    d="m 636.16016,409.22266 c -0.0667,0.002 -0.12016,0.1033 -0.16016,0.30664 l -0.92969,4.73047 c -1.2,10.6333 -3.14961,20.37715 -5.84961,29.23046 -6.41998,20.98996 -18.08072,39.55075 -32.4707,57.97071 -21.07996,24.46994 -39.47002,47.38006 -51.75,76.75 -7.81998,18.70663 -13.30256,36.23963 -16.44922,52.59961 -2.38,11.35998 -4.05172,22.83947 -5.01172,34.43945 l 0.24024,0.75 c 0.11333,0.33333 0.2614,0.35698 0.4414,0.0703 0.47334,-0.72666 1.05667,-1.92008 1.75,-3.58008 1.56,-3.73332 5.28637,-12.19111 11.17969,-25.37109 11.98998,-26.79994 27.37893,-51.87912 45.37891,-75.03906 13.12996,-16.88996 28.61072,-31.81106 39.9707,-50.04102 16.5333,-25.35994 23.1907,-53.22323 19.9707,-83.58984 -1.17333,-6.56665 -3.19698,-12.87636 -6.07031,-18.92969 -0.0933,-0.2 -0.17357,-0.29854 -0.24023,-0.29687 z"/>
                <path
                    fill="#4c6c2d"
                    d="m 635.07,414.26 q -1.8,15.95 -5.85,29.23 c -6.42,20.99 -18.08,39.55 -32.47,57.97 -21.08,24.47 -39.47,47.38 -51.75,76.75 q -11.73,28.06 -16.45,52.6 1.98,-15.57 6.61,-32.88 12.01,-45.01 40.42,-81.87 c 13.83,-17.93 29.02,-34.72 40.91,-54.07 q 12.48,-20.32 18.58,-47.73 z"
                    id="path6895"/>
                <path
                    fill="#51612c"
                    d="m 642.47,428.45 c 10.17,43.04 -2.01,90.78 -26.81,126.22 q -7.99,11.42 -19.19,24.32 -31.46,36.25 -45.78,54.46 -9.77,12.43 -28.7,40.27 -0.22,0.33 -0.14,-0.06 l 1.69,-8.41 0.24,0.75 q 0.17,0.5 0.44,0.07 0.71,-1.09 1.75,-3.58 2.34,-5.6 11.18,-25.37 c 11.99,-26.8 27.38,-51.88 45.38,-75.04 13.13,-16.89 28.61,-31.81 39.97,-50.04 Q 647.3,474 642.47,428.45 Z"
                    id="path6897"/>
            </g>
            <g
                id="g6905"
                style="display:inline"
                inkscape:label="green center right middle"
                transform="translate(-2,7.8845344)">
                <path
                    id="path6901"
                    style="fill:#76b034;fill-opacity:1"
                    d="m 587.6582,291.18164 c -0.0683,0.0383 -0.10099,0.16867 -0.0976,0.38867 0.0267,2.54667 0.48247,4.99628 1.36914,7.34961 2.85998,9.55998 3.96698,19.00343 3.32031,28.33008 -1.10667,15.8733 -5.19002,31.27763 -12.25,46.21094 -5.36665,10.58664 -11.22055,20.88512 -17.56055,30.89844 -5.37331,8.47998 -8.82914,14.17031 -10.36914,17.07031 -13.01996,24.47994 -22.19109,52.56068 -25.87109,79.64062 -0.0313,0.24642 -0.1737,0.4469 -0.36914,0.51953 l -0.33008,0.1211 c -2.97,25.14994 -3.55094,50.24912 -3.96094,75.53906 1.48,-2.08666 2.33078,-4.2328 2.55078,-6.43945 0.78,-7.72 2.19024,-12.02135 4.99024,-21.61133 7.67998,-26.24662 17.55755,-51.64593 29.63086,-76.19922 7.97998,-16.0733 17.32575,-32.57337 28.03906,-49.5 4.88,-7.70665 9.56722,-16.44739 14.06055,-26.2207 l 3.66992,-9.39844 c 9.84998,-31.66994 6.30265,-58.54902 -10.71733,-86.43896 -1.66394,-4.49659 -2.28633,-5.73818 -3.47408,-7.6919 l -2.31836,-2.41016 c -0.14,-0.14333 -0.24416,-0.19653 -0.3125,-0.1582 z"
                    sodipodi:nodetypes="scccccccccccccccccccs"/>
                <path
                    id="path6903"
                    d="m 590.28906,293.75 c -0.51527,0.39039 0.51122,1.87657 0.84212,2.78988 0.612,1.68918 1.3694,3.54931 2.10905,4.96012 17.01999,27.88997 21.09023,54.71089 11.24024,86.38086 l -3.66992,9.39844 C 596.31722,407.05262 591.63,415.79334 586.75,423.5 c -10.71332,16.92665 -20.05907,33.42668 -28.03906,49.5 -12.07332,24.55331 -21.95087,49.95258 -29.63086,76.19922 -2.8,9.58999 -4.21024,13.89133 -4.99024,21.61133 -0.22,2.20666 -1.07078,4.35279 -2.55078,6.43945 l -0.43945,4.26953 c -0.0467,0.39333 0.0809,0.52086 0.38086,0.38086 0.14667,-0.06 0.25674,-0.18443 0.33008,-0.37109 14.04998,-33.91997 29.77853,-66.16933 51.72851,-95.7793 7.4,-9.18666 14.99149,-18.21652 22.77149,-27.08984 6.07332,-6.92666 10.24,-12.11699 12.5,-15.57032 9.82665,-15.03998 15.12705,-31.81986 15.90039,-50.33984 1.54,-35.76996 -11.0119,-71.95003 -34.42188,-99 z m -1.35937,5.16992 c 1.88,17.03998 0.29666,33.55747 -4.75,49.55078 -7.1,22.44998 -21.049,39.85916 -31.95899,60.86914 -14.97332,28.84664 -23.8807,59.6378 -26.7207,92.3711 l 0.33008,-0.1211 c 0.19544,-0.0726 0.33788,-0.27311 0.36914,-0.51953 3.68,-27.07997 12.85111,-55.16065 25.87109,-79.64062 1.54,-2.9 4.99582,-8.59032 10.36914,-17.07031 6.34,-10.01333 12.19389,-20.31179 17.56055,-30.89844 7.05999,-14.93332 11.14333,-30.33762 12.25,-46.21094 0.64667,-9.32666 -0.46032,-18.77009 -3.32031,-28.33008 z"
                    style="fill:#3b793b;fill-opacity:1"
                    sodipodi:nodetypes="caccccccccccccscccccccccccccc"/>
            </g>
            <g
                id="g6911"
                style="display:inline"
                inkscape:label="green center top"
                transform="translate(0,4.9422672)">
                <path
                    fill="#64ba39"
                    d="m 526.75,198.21 c -0.82667,-0.75333 -1.56667,-0.78667 -2.22,-0.1 -0.20945,0.22152 -0.50258,0.33877 -0.8,0.32 -1.33,-0.08 -1.4,1.02 -1.15,2.06 5.67333,23.61333 12.08333,47.02667 19.23,70.24 2.54667,8.26667 4.62333,19.69 6.23,34.27 1.16667,15.90667 -0.25,31.57333 -4.25,47 -4.9,18.43333 -9.99139,36.49034 -16.43139,54.45034 -0.57,1.61 0.24368,1.28373 -0.0332,3.52412 -0.31277,0.78121 -1.50786,2.79425 -1.61598,3.03492 L 522.44,419.49 c 1.14667,-21.07333 1.64,-39.05 1.48,-53.93 -0.48,-46.73 -7.84,-93.52 -10.49,-140.3 -0.009,-0.16322 -0.0986,-0.29211 -0.18,-0.26 l -0.19,0.06 c -0.007,0.007 -0.0133,0.0433 -0.02,0.11 -0.55333,8.75333 -0.92667,14.09333 -1.12,16.02 -4.01,39.8 -7.66,79.66 -9.61,119.63 -0.42,8.65333 -0.0833,27.9 1.01,57.74 -7.53333,-21.88667 -14.13333,-43.16 -19.8,-63.82 -2.80667,-10.22 -4.68667,-20.86 -5.64,-31.92 -1.05,-24.01 4.63,-45.5 11.71,-68.56 6.12,-20.59333 11.50333,-41.38 16.15,-62.36 0.26,-1.14 1.74,-10.94 1.05,-11.65 2.55333,-9.04 4.65667,-18.18667 6.31,-27.44 0.06,-0.33333 0.12,-0.33667 0.18,-0.01 3.04,15.56667 7.53,30.70333 13.47,45.41 z"
                    id="path6907"
                    sodipodi:nodetypes="ccccccccccccscccccccccccccc"/>
                <path
                    id="path6909"
                    style="fill:#3b793b;fill-opacity:1"
                    d="m 519.15625,176.91797 c 0.26825,8.12737 3.37858,23.34427 3.42383,23.57226 5.6733,23.61325 12.08381,47.02699 19.23047,70.24024 2.54663,8.26663 4.62185,19.68957 6.22851,34.26953 1.16667,15.90659 -0.25,31.57341 -4.25,47 -4.89996,18.43325 -10.5698,36.62992 -17.00976,54.58984 -0.76023,2.87679 -0.55803,4.54504 -1.28911,6.16016 -1.0844,2.18485 -3.05078,6.74023 -3.05078,6.74023 l -0.51953,3.43946 c -0.08,0.51333 -0.006,0.52769 0.2207,0.041 8.58,-18.33992 17.5657,-34.63423 26.95899,-48.88086 6.5733,-9.97996 11.46636,-17.98313 14.67969,-24.00976 6.69329,-12.17996 10.25497,-25.20679 10.68164,-39.08008 0.15,-31.13988 -14.21125,-52.27918 -30.45117,-78.03906 -4.68,-7.42666 -10.03861,-18.27568 -16.86524,-34.01563 -0.41333,-0.37667 -5.05044,-13.54104 -7.91015,-22.02734 z M 506.78906,180.25 c -7.48663,23.01992 -17.83244,44.67435 -31.03906,64.96094 -12.90996,18.61992 -25.23047,44.31961 -22.98047,67.51953 0.02,15.05992 5.66074,30.01945 13.4707,42.85937 13.39996,22.02992 27.23911,43.02981 37.28907,66.92969 0.22666,0.53333 0.3069,0.52404 0.24023,-0.0293 l -0.44922,-3.92968 c -7.53329,-21.88659 -14.13412,-43.1604 -19.80078,-63.82032 -2.80666,-10.21996 -4.68534,-20.85996 -5.63867,-31.91992 -1.05,-24.00988 4.62902,-45.50066 11.70898,-68.56054 6.12,-20.59326 11.50376,-41.37946 16.15039,-62.35938 0.26,-1.14 1.73883,-10.94039 1.04883,-11.65039 z"
                    sodipodi:nodetypes="ccccccccccccccccccccscccccccc"/>
            </g>
            <g
                id="g6917"
                style="display:inline"
                inkscape:label="green center left middle"
                transform="translate(3.4711336,6.4134008)">
                <path
                    fill="#46a640"
                    d="m 438.3,299 q -3.13,13.04 -3.07,22.76 0.21,35.2 19.18,66.53 c 7.19,11.87 15.43,24.3 21.16,35.89 q 14.1,28.46 20.75,59.63 0.22,1.01 1.26,8.96 0.63,4.86 2.4,9.5 3.62,34.86 3.5,69.98 -1.32,-2.91 -2.47,-7 C 494.19,540.97 485.98,515.54 475.25,491.96 462.92,463.54 450,441.69 434.92,417.53 q -12.3,-19.69 -17.71,-42.28 -3.52,-17.14 -1.34,-34.3 c 1.35,-10.61 4.98,-19.89 9.36,-30.01 q 0.4,-0.93 -0.69,-1.44 6.24,-9.91 14.27,-18.47 0.98,-1.05 0.76,0.32 z"
                    id="path6913"/>
                <path
                    id="path6915"
                    style="fill:#355b2f;fill-opacity:1"
                    d="m 438.30078,299 c -2.08666,8.69331 -3.11031,16.27977 -3.07031,22.75977 0.14,23.46661 6.53304,45.64267 19.17969,66.52929 7.18998,11.86998 15.43017,24.30065 21.16015,35.89063 9.39998,18.97329 16.31668,38.8509 20.75,59.63086 0.14667,0.67333 0.56644,3.659 1.25977,8.95898 0.42,3.24 1.22039,6.40667 2.40039,9.5 -3.02,-30.49994 -10.55113,-60.50051 -23.37109,-87.98047 -6.17,-13.19996 -14.09963,-25.96933 -22.59961,-41.02929 C 440.92979,350.09314 435.69412,325.33994 438.30078,299 Z m -13.76172,10.5 c -11.78664,18.59329 -19.03667,38.84338 -21.75,60.75 -4.32998,31.27994 2.85043,61.87037 23.90039,85.82031 11.35998,12.92665 20.36816,23.56971 27.02149,31.92969 20.87996,28.85994 37.03861,60.77078 49.80859,93.9707 0.33333,0.87334 0.47636,0.84349 0.42969,-0.0898 l -0.46875,-9.6309 c -0.88,-1.94 -1.70405,-4.27334 -2.4707,-7 -6.82,-24.27996 -15.02979,-49.70912 -25.75977,-73.28906 -12.32998,-28.41994 -25.2501,-50.2717 -40.33008,-74.43164 -8.19998,-13.12665 -14.10233,-27.21934 -17.70898,-42.2793 -2.34667,-11.42665 -2.79513,-22.8608 -1.3418,-34.30078 1.35,-10.60998 4.98133,-19.88979 9.36133,-30.00977 0.26667,-0.62 0.0353,-1.09945 -0.69141,-1.43945 z"/>
            </g>
            <g
                id="g6925"
                style="display:inline"
                inkscape:label="green center left bottom"
                transform="translate(5.4711336,6.4134008)">
                <path
                    fill="#54ac41"
                    d="m 391.49,416.49 q 0.77,11.69 2.79,20.5 c 8.05,35.04 30.26,60.82 52.63,87.62 25.19,30.17 43.83,68.07 50.65,106.88 q 0.1,0.57 0.65,0.51 3.24,16.93 4.45,34.39 -7.02,-15.48 -14.2,-30.87 -19.98,-42.87 -50.66,-78.84 -9.83,-11.52 -19.72,-22.99 c -15.15,-17.55 -26.31,-36.43 -32.22,-59.01 q -4.95,-18.9 -2.71,-41.16 1.71,-12.19 6.83,-23.51 0.23,-0.5 0.33,0.04 z"
                    id="path6919"/>
                <path
                    fill="#366630"
                    d="m 391.49,416.49 q 5.45,27.19 20.3,50.47 c 12.89,20.2 29.61,37.17 43.32,56.67 q 34.23,48.72 43.1,108.37 -0.55,0.06 -0.65,-0.51 c -6.82,-38.81 -25.46,-76.71 -50.65,-106.88 -22.37,-26.8 -44.58,-52.58 -52.63,-87.62 q -2.02,-8.81 -2.79,-20.5 z"
                    id="path6921"/>
                <path
                    fill="#364427"
                    d="m 383.15,433.52 q -2.24,22.26 2.71,41.16 c 5.91,22.58 17.07,41.46 32.22,59.01 q 9.89,11.47 19.72,22.99 30.68,35.97 50.66,78.84 7.18,15.39 14.2,30.87 l 1.47,7.82 q 0.11,0.59 -0.2,0.06 -2.62,-4.54 -5.58,-8.86 C 476.55,633.61 449.72,602.86 428.25,578 397.03,541.86 379.01,502.84 380.24,454.25 q 0.27,-10.48 2.91,-20.73 z"
                    id="path6923"/>
            </g>
        </g>
        <g
            id="g6959"
            inkscape:label="left"
            style="display:inline">
            <g
                id="g6935"
                style="display:inline"
                inkscape:label="blue"
                transform="translate(4,9.8845344)">
                <path
                    id="path6929"
                    d="m 200.16211,338.73828 c -0.0683,0.0483 -0.0326,0.24823 0.10742,0.60156 l 3.94141,9.91016 c 0.32,-0.48667 0.75836,-0.74906 1.31836,-0.78906 0.28465,-0.0262 0.58665,0.1341 0.79101,0.41992 21.31998,29.59997 48.90066,49.67916 81.64063,65.86914 5.59999,3.09333 11.21318,6.16737 16.83984,9.2207 17.38998,9.44999 31.34868,22.06932 42.38867,38.5293 8.12,12.09999 21.52234,41.93949 27.53566,55.27948 -1.13606,-7.16469 -8.66751,-31.07282 -10.51417,-37.77948 -1.84154,-3.85121 -2.66376,-4.83739 -3.24417,-6.42242 -6.00666,-15.75999 -13.32772,-29.28504 -21.42771,-40.87836 -7.09999,-10.15332 -12.31201,-18.02891 -15.63867,-23.62891 -11.11332,-9.20665 -23.49707,-16.38459 -37.15039,-21.53125 -7.04666,-2.87333 -19.64241,-8.37954 -37.78906,-16.51953 -17.85998,-8.00666 -33.9546,-18.6621 -48.28125,-31.96875 -0.27667,-0.25667 -0.44925,-0.36083 -0.51758,-0.3125 z"
                    style="fill:#46bfd2;fill-opacity:1"
                    sodipodi:nodetypes="scccccccccccccccs"/>
                <path
                    id="path6931"
                    d="m 205.5293,348.46094 c -0.56,0.04 -0.99836,0.30239 -1.31836,0.78906 l 7.43945,24.93945 c 2.54,3.80667 4.49271,7.90746 5.85938,12.30078 6.95999,22.31998 16.02785,43.73979 27.20117,64.25977 13.44665,24.09998 31.38814,42.67095 53.82812,55.71094 14.36665,8.34666 31.94383,16.75209 52.73047,25.21875 2.42,0.99 6.61047,5.56125 9.23047,4.28125 -36.76663,-30.74664 -69.94266,-64.97192 -99.5293,-102.67188 -2.22999,-2.84999 -25.84015,-33.34851 -25.41015,-33.72851 0.0801,-0.078 0.24196,-0.0375 0.35937,0.0898 12.20999,13.06999 25.88962,24.669 39.59961,35.70899 16.99998,13.68998 34.33119,27.12149 50.95117,41.27148 17.18665,14.63998 33.72273,29.99194 49.60938,46.05859 0.81333,0.82667 1.01294,0.698 0.59961,-0.38867 l -8.28907,-21.64062 C 362.3773,487.32017 355.30945,474.59999 347.18945,462.5 c -11.03999,-16.45998 -24.99869,-29.07931 -42.38867,-38.5293 -5.62666,-3.05333 -11.23985,-6.12737 -16.83984,-9.2207 -32.73997,-16.18998 -60.32065,-36.26917 -81.64063,-65.86914 -0.20436,-0.28582 -0.50636,-0.44614 -0.79101,-0.41992 z m 118.37109,60.60937 c 3.32666,5.6 8.53868,13.47559 15.63867,23.62891 8.09999,11.59332 15.1535,25.27126 21.16016,41.03125 0.76,2 0.75318,2.22387 1.14481,3.79328 0.22153,0.82758 0.419,1.23639 0.67014,2.02017 0.36676,0.75058 0.96066,1.23975 1.69677,0.45608 -5.48,-27.28997 -18.70057,-53.36971 -40.31055,-70.92969 z"
                    style="fill:#0a819f;fill-opacity:1"
                    sodipodi:nodetypes="cccccccccccccccccccccccccccc"/>
                <path
                    id="path6933"
                    style="fill:#264942;fill-opacity:1"
                    d="m 211.65039,374.18945 c 4.28666,21.23328 8.34016,42.4834 12.16016,63.75 0.79333,4.39333 1.94565,9.49724 3.45898,15.31055 6.80997,30.49991 24.73991,54.97964 53.58985,67.09961 11.76994,4.94997 26.87091,7.94094 39.88085,9.46094 15.1133,1.76 29.18741,4.57901 42.22071,8.45898 0.32,0.1 0.34988,0.0403 0.0898,-0.17969 L 360.5,535.96094 c -4.25115,-0.97443 -6.81047,-3.29125 -9.23047,-4.28125 -20.7866,-8.46664 -38.36384,-16.87211 -52.73047,-25.21875 -22.43994,-13.03997 -40.38151,-31.611 -53.82812,-55.71094 -11.1733,-20.51994 -20.2412,-41.93983 -27.20117,-64.25977 -1.36667,-4.3933 -3.31938,-8.49411 -5.85938,-12.30078 z"/>
            </g>
            <g
                id="g6943"
                style="display:inline"
                inkscape:label="purple"
                transform="translate(-0.41340086,4)">
                <path
                    id="path6937"
                    style="fill:#b965a1;fill-opacity:1"
                    d="m 222.5293,482.74219 c -0.0667,-0.002 -0.13565,0.0814 -0.20899,0.24804 -5.47998,12.83998 -5.27125,28.29979 -3.03125,42.00977 l 1.22071,0.33008 c 0.2486,0.0676 0.47922,0.33222 0.60937,0.69922 2.35333,6.75331 3.98396,10.99713 4.89063,12.73047 7.07998,13.5533 17.66025,23.37117 31.74023,29.45117 8.27332,3.36665 16.85669,5.47479 25.75,6.32812 7.65998,0.53334 15.32668,0.67521 23,0.42188 23.04996,-1.27 42.89098,-1.28092 64.71094,4.28906 13.80663,4.03333 26.61327,10.10429 38.41992,18.21094 0.28,0.19333 1.7955,1.46193 4.54883,3.80859 1.52666,1.30667 3.23753,2.35396 5.13086,3.14063 C 406.6439,589.69018 391.6233,577.95759 374.25,569.21094 c -2.62023,-1.40086 -4.89035,-2.52538 -7.51953,-3.51172 -10.51998,-3.8 -20.84406,-6.54185 -30.9707,-8.22852 -6.19333,-1.03333 -14.467,-2.1938 -24.82032,-3.48047 -19.41996,-2.80998 -35.75949,-5.91931 -52.43945,-15.77929 -11.51998,-7.13333 -20.71342,-16.52523 -27.58008,-28.17188 -3.72665,-6.30665 -5.92627,-11.58961 -6.59961,-15.84961 -0.53333,-3.33332 -1.01784,-5.67597 -1.45117,-7.02929 -0.0934,-0.28097 0.0434,-0.57685 0.30078,-0.65039 0.28,-0.0733 0.54435,-0.0762 0.79102,-0.01 L 222.7207,483 c -0.06,-0.17 -0.12474,-0.25615 -0.1914,-0.25781 z"/>
                <path
                    fill="#882a6b"
                    d="m 223.96,486.5 c 12.92,33.27 41.68,52.01 75.52,59.36 23.38,5.07 45.54,9.12 67.25,19.84 q -15.78,-5.7 -30.97,-8.23 -9.29,-1.55 -24.82,-3.48 c -19.42,-2.81 -35.76,-5.92 -52.44,-15.78 q -17.28,-10.7 -27.58,-28.17 -5.59,-9.46 -6.6,-15.85 -0.8,-5 -1.45,-7.03 a 0.52,0.47 73.1 0 1 0.3,-0.65 q 0.42,-0.11 0.79,-0.01 z"
                    id="path6939"/>
                <path
                    id="path6941"
                    style="fill:#5f1e41;fill-opacity:1"
                    d="m 219.28906,525 c 5.94,41.05992 32.68102,79.32094 77.46094,80.96094 14.58998,-0.14 27.40004,-3.50047 43,-6.98047 25.53994,-5.7 53.01029,-2.45139 78.49023,6.80859 0.29,0.1 7.4203,4.55108 1.07032,-1.3789 -1.89333,-0.78667 -3.51045,-1.95115 -5.03711,-3.25782 -2.75333,-2.34665 -4.36258,-3.49807 -4.64258,-3.6914 -11.80665,-8.10665 -24.61329,-14.17761 -38.41992,-18.21094 -21.81996,-5.56998 -41.66098,-5.55906 -64.71094,-4.28906 -7.67332,0.25333 -15.34002,0.11146 -23,-0.42188 -8.89331,-0.85333 -17.47668,-2.96147 -25.75,-6.32812 -14.07998,-6.08 -24.66025,-15.89787 -31.74023,-29.45117 -0.90667,-1.73334 -2.5373,-5.97716 -4.89063,-12.73047 -0.13015,-0.367 -0.36077,-0.63162 -0.60937,-0.69922 z"
                    inkscape:label="path268"/>
            </g>
            <g
                id="g6951"
                style="display:inline"
                inkscape:label="magenta"
                transform="rotate(2,348.29879,779.55071)">
                <path
                    fill="#9b1a4e"
                    d="m 459.25,645.29 c 0,0.32 -0.08,0.56 -0.24,0.72 -0.16938,0.16077 -0.5228,0.1187 -0.84,-0.1 -1.10667,-0.76 -3.15,-1.82 -6.13,-3.18 -20.05,-9.16 -40.34,-17.31 -62.51,-19.82 -18.42,-2.08 -36.59667,-0.97333 -54.53,3.32 -14.75,3.54 -31.25,9.2 -44.48,13.13 -12.12,3.6 -17.30993,7.20646 -27.68993,6.95646 -2.64351,0.64208 -4.66142,2.50699 -6.83462,2.34722 -3.3939,-0.0256 -5.72666,0.0653 -9.28545,-1.66368 14.16,-4.26667 30.77333,-10.00667 49.84,-17.22 43,-16.27 95.22,-20.59 137.66,0.49 7.28,3.61333 15.62667,8.62 25.04,15.02 z"
                    id="path6945"
                    sodipodi:nodetypes="ccccccccccccc"/>
                <path
                    fill="#b8145c"
                    d="m 459.25,645.29 c 8.48667,5.03333 16.75333,10.39 24.8,16.07 0.26667,0.18667 0.25,0.20667 -0.05,0.06 -34.41,-16.81 -79.49,-15.53 -116,-7.67 -13.26,2.85333 -26.54333,5.6 -39.85,8.24 -25.31,5.03 -45.45,6.39 -68.89,4.26 -0.85,-0.08 -2.35,0.07 -0.59,0.52 30.65333,7.79333 61.76333,10.10333 93.33,6.93 23.47,-2.36 46.57,-5.74 70.69,-6.06 0.32667,-0.007 0.33333,0.0433 0.02,0.15 l -9.2,3.04 c -0.76667,-0.42 -1.8537,-0.0592 -2.7937,0.0808 -2.17,0.33 -1.41746,0.063 -4.9818,1.25741 -1.55191,0.36244 -2.26812,0.55341 -3.61466,0.95741 -3.04,2.02 -6.18651,2.16439 -9.63984,3.30439 -14.39333,4.75333 -28.98,8.81667 -43.76,12.19 -22.75,5.2 -44.52,3.75 -66.96,-2.15 -21.85333,-5.74 -43.29333,-12.72333 -64.32,-20.95 -0.11333,-0.0467 -0.45,-0.0633 -1.01,-0.05 l -1.68,0.03 c -1.66,0.0333 3.0398,1.51662 0.47779,0.94429 -1.46085,-0.22566 -4.05387,-1.22069 -6.97779,-2.48429 -7.63333,-3.81333 -15.46,-7.23667 -23.48,-10.27 -0.31333,-0.12 -0.30333,-0.17667 0.03,-0.17 21.69,0.42 41.1,-1.07 61.91,-6.52 3.22741,1.62955 5.7987,0.98673 8.48278,0.24722 2.42902,-0.61293 8.23797,-1.92582 12.36479,-2.85437 7.64471,-1.7201 11.03875,-2.0218 22.96243,-5.03285 13.23,-3.93 29.73,-9.59 44.48,-13.13 17.93333,-4.29333 36.11,-5.4 54.53,-3.32 22.17,2.51 42.46,10.66 62.51,19.82 2.98,1.36 5.02333,2.42 6.13,3.18 0.3172,0.2187 0.67062,0.26077 0.84,0.1 0.16,-0.16 0.24,-0.4 0.24,-0.72 z"
                    id="path6947"
                    sodipodi:nodetypes="ccccccccccccccccccccccccccacccccccc"/>
                <path
                    fill="#821c3f"
                    d="m 413.51,670.83 c -17.32,7.03 -27.68,14.03 -47.33,26.1 -27.95,17.16 -55.93,24.07 -86.74,9.12 -9.34,-4.53 -16.51,-8.34 -25.53,-14.35 -14.82667,-9.88667 -30.04667,-19.13333 -45.66,-27.74 0.95412,-0.50588 1.31026,-0.0116 2.47064,0.0137 1.34114,0.15496 2.03608,0.40232 3.47248,0.72841 1.02741,0.32057 2.16535,0.47041 3.24688,0.81789 21.02667,8.22667 42.46667,15.21 64.32,20.95 22.44,5.9 44.21,7.35 66.96,2.15 14.78,-3.37333 29.36667,-7.43667 43.76,-12.19 3.45333,-1.14 7.26757,-2.68662 10.17403,-3.83857 3.55634,-1.05338 5.54868,-1.6776 8.29597,-2.18143 0.94,-0.14 1.79333,0 2.56,0.42 z"
                    id="path6949"
                    sodipodi:nodetypes="cccccccccccccc"/>
            </g>
            <g
                id="g6957"
                style="display:inline"
                inkscape:label="red"
                transform="translate(4,-4.8268017)">
                <path
                    fill="#dd3e34"
                    d="m 501.72,690.51 c -24.34,-4.95 -46.51,6.06 -64.57,21.39 -14.65,12.44 -29.06,25.21 -45.56,35.19 -21.3,12.88 -46.11862,20.94545 -70.88862,15.34545 -0.26149,-0.0563 -3.53131,-1.28598 -3.76138,-1.05545 -0.52,0.52667 -1.16667,0.56333 -1.94,0.11 -3.56667,-2.10667 -7.24667,-4.01667 -11.04,-5.73 -7.82667,-5.99333 -13.82333,-13.14 -17.99,-21.44 -0.43333,-0.86 -0.19333,-1.13333 0.72,-0.82 12.19333,4.23333 24.53,5.53333 37.01,3.9 32.24,-4.22 54.9,-24.68 83.9,-40.78 22.54667,-12.51333 47.01,-16.97667 73.39,-13.39 1.76,0.24 19.25,4.35 20.73,7.28 z"
                    id="path6953"
                    sodipodi:nodetypes="ccccccccccccc"/>
                <path
                    fill="#751c35"
                    d="m 501.72,690.51 c 0.46,0.13333 0.84333,0.33 1.15,0.59 0.17643,0.15003 0.11158,0.44183 -0.12,0.54 -9.39,3.93 -14.78,9.24 -21.5,18.04 -7.08667,9.28667 -13.25333,17.13667 -18.5,23.55 -28.7,35.06 -70.68,47.94 -114.74,40.88 -16.2,-2.6 -30.88333,-8.71667 -44.05,-18.35 3.79333,1.71333 4.2599,1.79543 7.82657,3.9021 1.08215,0.63696 1.92079,0.85903 3.46742,1.28388 1.81592,0.38715 5.28606,0.76543 5.54755,0.82175 C 346.84022,764.93052 370.29,759.97 391.59,747.09 c 16.5,-9.98 30.91,-22.75 45.56,-35.19 18.06,-15.33 40.23,-26.34 64.57,-21.39 z"
                    id="path6955"
                    sodipodi:nodetypes="ccccccccccccc"/>
            </g>
        </g>
        <path
            fill="#45241e"
            d="m 498.02475,808.18888 c 14.82,-36.45 20.43447,-77.63927 11.79447,-116.19927 -0.0664,-0.30768 0.16428,-0.60421 0.49,-0.63 l 8.5519,-0.70412 c 0.89393,-0.0739 1.74516,0.59697 2.03,1.6 12.84,45.37 8.16363,95.03339 -8.12637,137.96339 -0.10856,0.28956 -0.36015,0.48124 -0.63,0.48 l -25,0.08 c -0.21997,0.0108 -0.37332,-0.21071 -0.27,-0.39 3.9,-7.29 8.18,-14.86 11.16,-22.2 z"
            id="path6961"
            style="display:inline"
            inkscape:label="stem"
            sodipodi:nodetypes="cccccccccc"/>
    </g>
    <text
        xml:space="preserve"
        style="font-size:32px;line-height:2;font-family:'Medici Text';-inkscape-font-specification:'Medici Text, Normal';text-align:center;writing-mode:vertical-lr;direction:rtl;text-anchor:middle;fill:#c8c4b7;fill-opacity:1;stroke:#000000;stroke-width:5;stroke-linecap:round;stroke-linejoin:round;stroke-dasharray:none;paint-order:markers stroke fill"
        x="540.52032"
        y="957.59418"
        id="text7421"
        inkscape:label="Trademark"><tspan
       sodipodi:role="line"
       id="tspan7419"
       x="540.52032"
       y="957.59418"
       style="font-style:normal;font-variant:normal;font-weight:normal;font-stretch:normal;font-size:32px;font-family:'Roboto Black';-inkscape-font-specification:'Roboto Black, ';writing-mode:lr-tb;fill:#000000;stroke:none">TM</tspan></text>
    <g
        id="g10152"
        inkscape:label="Copyright">
        <path
            style="fill:none;fill-opacity:1;stroke:none;stroke-width:1.13642;stroke-linecap:round;stroke-linejoin:round;stroke-dasharray:none;paint-order:markers stroke fill"
            d="m 498.75978,957.08729 c 9.52593,-32.85489 19.05166,-65.70914 21.01323,-96.98123 1.96157,-31.27209 -3.64184,-60.96302 -9.24503,-90.6528"
            id="path7703"
            inkscape:path-effect="#path-effect7705"
            inkscape:original-d="m 498.75978,957.08729 c 0,0 19.05286,-65.70879 28.57778,-98.56468 -5.60219,-29.68879 -16.80958,-89.06935 -16.80958,-89.06935"
            inkscape:label="copyright path"
            sodipodi:nodetypes="ccc"/>
        <text
            xml:space="preserve"
            style="font-style:normal;font-variant:normal;font-weight:normal;font-stretch:normal;font-size:18.7759px;line-height:2;font-family:'Roboto Light';-inkscape-font-specification:'Roboto Light, ';text-align:center;writing-mode:lr-tb;direction:ltr;text-anchor:middle;fill:#000000;fill-opacity:1;stroke:#000000;stroke-width:0.586746;stroke-linecap:round;stroke-linejoin:round;stroke-dasharray:none;paint-order:markers stroke fill"
            id="text10131"
            inkscape:label="Copyright"><textPath
         xlink:href="#path7703"
         startOffset="50%"
         id="textPath10145"><tspan
           id="tspan10129"
           style="stroke-width:0.586746"> 2023 ThreeLeaf.com</tspan></textPath></text>
    </g>
</svg>
