<?xml version="1.0" encoding="UTF-8" standalone="no"?>
<!DOCTYPE svg PUBLIC "-//W3C//DTD SVG 1.1//EN" "http://www.w3.org/Graphics/SVG/1.1/DTD/svg11.dtd">
<svg width="100%" height="100%" viewBox="0 0 810 810" version="1.1" xmlns="http://www.w3.org/2000/svg" xml:space="preserve"
     style="fill-rule:evenodd;clip-rule:evenodd;stroke-linejoin:round;stroke-miterlimit:2;">
    <metadata>
      Copyright (c) 2025 John A. Marsh, ThreeLeaf.com. All rights reserved.
      Title: Xdebug Chrome Extension Icon
      Creator: John A. Marsh
      Publisher: ThreeLeaf.com
      Description: Xdebug Chrome Extension Icon
    </metadata>
    <g transform="matrix(1.07475,0,0,1.07475,-12.1847,-13.8807)">
        <path
            d="M247.035,174.956C253.979,186.767 260.924,198.578 268.006,211.071C279.541,234.11 289.877,256.96 297.536,280.864C303.906,300.747 309.294,320.943 315.079,341.4C318.01,357.02 321.073,372.223 323.905,387.469C325.162,394.236 326.739,401.217 320.805,406.91C320.805,406.91 320.911,407.02 320.681,407.031C320.265,407.369 320.078,407.696 319.892,408.023C319.892,408.023 320.005,407.926 319.657,408.036C319.132,408.754 318.955,409.361 318.779,409.968C318.746,409.785 318.714,409.602 318.326,409.535C317.972,409.651 317.953,409.861 317.953,409.861C313.327,416.09 308.702,422.318 303.895,428.792C302.827,428.154 301.341,427.267 299.399,425.923C298.282,425.273 297.622,425.079 296.961,424.885C296.961,424.885 297.053,424.999 296.935,424.646C285.213,419.232 273.609,414.17 262.005,409.108C259.033,407.914 256.061,406.72 252.76,404.92C241.294,399.14 230.158,393.966 219.023,388.791C219.023,388.791 219.035,388.924 218.92,388.622C214.874,386.475 210.944,384.631 207.014,382.788C207.014,382.788 207.024,382.935 206.933,382.643C206.215,382.199 205.587,382.045 204.959,381.892C204.959,381.892 205.057,382.013 204.955,381.678C204.222,381.187 203.592,381.032 202.962,380.876C202.962,380.876 202.943,381.012 202.928,380.783C202.626,380.437 202.339,380.319 202.051,380.202C197.687,377.91 193.323,375.617 188.603,372.833C185.173,370.833 182.1,369.325 179.026,367.817C179.026,367.817 179.036,367.945 178.921,367.668C178.19,367.222 177.574,367.052 176.958,366.882C176.958,366.882 177.049,366.999 176.925,366.656C174.873,365.471 172.944,364.628 171.016,363.786C171.016,363.786 171.026,363.932 170.937,363.638C170.218,363.194 169.589,363.044 168.96,362.893C168.96,362.893 169.049,363.012 168.953,362.665C167.284,361.528 165.711,360.738 163.971,359.647C161.56,358.183 159.315,357.019 157.07,355.855C157.07,355.855 157.071,355.941 156.931,355.673C156.18,355.232 155.569,355.059 154.957,354.886C154.957,354.886 155.049,355.011 154.942,354.685C154.212,354.209 153.588,354.06 152.964,353.911C152.964,353.911 153.063,354.019 152.957,353.68C152.22,353.191 151.589,353.041 150.959,352.891C150.959,352.891 151.053,353.011 150.957,352.658C148.252,350.797 145.643,349.291 143.034,347.784C143.034,347.784 143.045,347.911 142.936,347.614C141.228,346.471 139.629,345.625 138.031,344.779C138.031,344.779 138.04,344.918 137.942,344.63C137.217,344.19 136.59,344.038 135.963,343.886C135.963,343.886 136.06,344 136.016,343.721C135.699,343.265 135.427,343.087 135.154,342.909C127.864,338.21 120.482,333.646 113.306,328.78C102.18,321.235 93.45,311.448 86.894,299.049C86.535,298.263 86.254,298.09 85.973,297.917C85.973,297.917 86.031,298.049 86.039,297.63C77.466,276.04 78.659,254.493 84.158,232.989C86.921,222.186 90.808,211.67 94.187,201.024C94.187,201.024 94.069,201.04 94.368,200.881C102.813,179.966 109.948,158.895 113.46,136.8C114.32,131.388 114.038,125.795 114.281,120.286C114.24,120.525 114.199,120.765 114.879,120.896C118.145,100.352 120.537,79.878 130.098,60.925C131.559,61.407 132.767,61.805 133.974,62.203C133.974,62.203 133.962,62.067 134.071,62.348C134.802,62.801 135.423,62.973 136.045,63.144C136.045,63.144 135.963,63.013 136.076,63.347C138.45,64.851 140.711,66.02 142.973,67.189C142.973,67.189 142.959,67.071 143.083,67.368C145.777,69.166 148.348,70.668 150.919,72.17C150.919,72.17 150.915,72.087 151.038,72.363C152.08,73.153 152.999,73.667 153.918,74.18C153.918,74.18 153.917,74.087 154.034,74.372C155.093,75.177 156.037,75.696 156.98,76.216C156.98,76.216 156.959,76.079 156.996,76.319C157.307,76.735 157.581,76.911 157.855,77.088C163.603,81.265 169.613,85.134 175.025,89.709C180.219,94.1 184.754,99.263 189.653,104.01C193.217,107.464 197.102,110.607 200.485,114.225C205.092,119.153 209.491,124.292 213.735,129.538C219.658,136.857 225.356,144.358 231.563,152.226C232.619,153.507 233.263,154.345 233.906,155.182C233.906,155.182 233.908,155.082 233.957,155.35C234.442,156.243 234.879,156.867 235.316,157.491C235.316,157.491 235.584,157.538 235.628,157.761C236.425,159.032 237.178,160.08 237.932,161.128C237.932,161.128 237.953,161.064 238.045,161.364C239.06,162.837 239.984,164.009 240.907,165.181C240.907,165.181 240.926,165.041 240.962,165.367C242.303,167.521 243.608,169.35 244.913,171.178C244.913,171.178 244.928,171.039 244.957,171.348C245.668,172.757 246.352,173.856 247.035,174.956Z"
            style="fill:rgb(70,191,210);fill-rule:nonzero;"/>
    </g>
    <g transform="matrix(1.07743,0,0,1.07743,-47.4672,-35.7998)">
        <path
            d="M504.142,552.909C492.638,545.337 481.133,537.765 469.045,529.904C467.314,529.008 466.167,528.401 465.02,527.794C465.02,527.794 465.033,527.935 464.939,527.628C461.903,525.476 458.962,523.63 456.02,521.785C456.02,521.785 456.033,521.929 455.95,521.63C454.917,520.816 453.966,520.301 453.014,519.787C453.014,519.787 453.038,519.926 453.004,519.683C452.694,519.263 452.419,519.086 452.143,518.909C446.77,515.258 441.433,511.552 436.014,507.972C429.799,503.867 423.491,499.903 417.257,495.826C408.891,490.354 400.482,484.94 392.24,479.286C388.191,476.509 384.476,473.247 380.07,469.927C379.045,469.382 378.559,469.114 378.073,468.847C378.073,468.847 378.079,468.927 377.949,468.655C376.906,467.86 375.992,467.336 375.078,466.813C375.078,466.813 375.076,466.923 374.989,466.659C374.273,465.921 373.644,465.447 373.014,464.972C373.014,464.972 372.995,464.992 373.097,464.659C374.869,461.224 376.538,458.121 378.207,455.019C378.207,455.019 378.074,455.033 378.379,454.919C380.868,449.887 383.051,444.969 385.234,440.052C385.547,440.049 385.785,439.914 386.321,439.333C388.148,438.059 389.602,437.101 391.362,436.089C392.155,435.716 392.642,435.397 393.129,435.077C393.129,435.077 393.022,435.08 393.374,435.055C395.537,434.049 397.347,433.068 399.157,432.087C399.157,432.087 399.038,432.071 399.398,432.056C402.559,430.724 405.36,429.407 408.161,428.091C408.161,428.091 408.041,428.075 408.412,428.062C437.486,416.437 467.012,407.393 497.383,399.769C514.846,396.449 531.922,393.143 549.418,389.885C551.625,389.636 553.403,389.232 555.203,389.059C568.718,387.762 582.217,385.842 595.762,385.409C613.5,384.843 631.287,385.107 649.029,385.706C659.376,386.056 669.678,387.759 680.406,388.932C686.934,390.162 693.073,391.23 699.174,392.48C720.313,396.812 740.683,403.421 759.972,413.195C759.972,413.195 759.957,413.076 760.086,413.372C763.135,415.121 766.057,416.573 768.978,418.026C770.975,420.206 770.688,422.189 768.493,424.044C767.161,425.171 765.867,426.344 764.28,428.015C763.983,428.705 763.961,428.875 763.939,429.045C763.939,429.045 764.043,429.032 763.756,429.045C763.236,429.356 763.003,429.654 762.77,429.953C761.573,431.052 760.377,432.15 758.758,433.724C758.136,434.79 757.937,435.382 757.738,435.973C757.738,435.973 757.972,435.976 757.643,435.686C756.802,435.915 756.29,436.433 755.779,436.951C755.227,437.385 754.675,437.819 753.787,438.65C753.275,439.375 753.1,439.703 752.925,440.031C752.925,440.031 753.029,440.025 752.747,440.043C752.286,440.383 752.106,440.704 751.926,441.026C751.926,441.026 752.028,441.048 751.785,441.021C751.393,441.076 751.245,441.158 751.096,441.24C741.561,448.843 732.046,456.473 722.479,464.036C718.454,467.219 714.317,470.262 709.942,473.714C709.652,474.059 709.464,474.268 709.464,474.268C709.458,474.442 709.452,474.616 709.323,474.728C709.064,475.095 708.927,475.523 708.79,475.95C708.79,475.95 708.941,475.866 708.519,475.762C707.642,476.403 707.188,477.148 706.734,477.893C706.734,477.893 706.892,477.92 706.514,477.75C706.009,478.025 705.882,478.47 705.755,478.914C705.755,478.914 705.955,478.922 705.63,478.643C704.812,478.887 704.317,479.41 703.823,479.932C703.823,479.932 703.927,480.03 703.697,480.045C703.287,480.382 703.106,480.703 702.925,481.025C702.925,481.025 703.024,481.024 702.745,481.042C702.286,481.382 702.105,481.703 701.924,482.024C701.924,482.024 702.024,482.024 701.745,482.042C701.285,482.381 701.104,482.702 700.924,483.023C700.924,483.023 701.023,483.023 700.744,483.04C700.284,483.38 700.104,483.701 699.923,484.023C699.923,484.023 700.024,484.027 699.745,484.04C699.234,484.352 699.002,484.651 698.77,484.95C697.899,485.712 697.028,486.473 695.782,487.661C694.867,488.707 694.327,489.329 693.786,489.95C693.233,490.399 692.679,490.849 691.782,491.701C690.953,492.708 690.468,493.313 689.983,493.918C679.771,506.437 669.667,519.047 659.304,531.44C653.427,538.469 647.142,545.158 641.005,551.968C638.582,554.656 636.063,557.257 632.951,560.033C631.149,561.084 629.985,562 628.821,562.915C628.821,562.915 628.918,562.919 628.61,562.981C627.142,564.001 625.981,564.958 624.821,565.915C624.821,565.915 624.964,565.934 624.657,565.96C623.509,566.628 622.668,567.272 621.826,567.916C621.826,567.916 621.964,567.929 621.624,567.954C619.135,569.29 616.987,570.602 614.839,571.913C614.839,571.913 614.964,571.93 614.597,571.946C594.369,581.483 573.79,582.612 553.102,575.767C541.777,572.02 531.03,566.526 520.023,561.82C520.023,561.82 520.037,561.935 519.902,561.643C518.518,560.84 517.27,560.327 516.022,559.815C516.022,559.815 516.038,559.934 515.909,559.637C512.861,557.824 509.943,556.31 507.024,554.796C507.024,554.796 507.038,554.92 506.949,554.641C505.954,553.877 505.048,553.393 504.142,552.909Z"
            style="fill:rgb(70,191,210);fill-rule:nonzero;"/>
    </g>
    <g transform="matrix(1.075,0,0,1.07108,-13.7249,-35.5308)">
        <path
            d="M63.063,404.172C67.539,399.844 72.015,395.515 77.085,390.963C78.845,389.856 80.01,388.971 81.175,388.086C81.175,388.086 81.031,388.025 81.397,388.039C89.175,386.313 96.588,384.573 104.464,382.912C120.107,382.295 134.958,384.344 149.478,388.677C160.69,392.023 171.813,395.665 182.977,399.176C182.977,399.176 182.961,399.063 183.121,399.364C195.85,404.778 208.419,409.892 221.239,415.253C225.553,417.33 229.605,419.186 233.681,420.987C253.437,429.716 273.199,438.429 292.959,447.148C292.959,447.148 292.993,447.029 292.957,447.278C292.916,447.703 292.91,447.879 292.904,448.055C292.904,448.055 293.014,447.942 292.655,448.075C289.126,456.465 285.956,464.722 282.785,472.979C282.785,472.979 282.928,472.967 282.634,473.055C281.508,474.406 280.677,475.669 279.845,476.932C279.845,476.932 279.948,477.005 279.737,477.035C279.41,477.361 279.294,477.658 279.177,477.955C273.066,483.318 266.934,488.657 260.848,494.049C254.184,499.953 247.749,506.134 240.872,511.778C232.717,518.472 224.236,524.773 215.825,531.152C205.922,538.662 195.937,546.064 186.003,553.534C183.166,555.667 180.386,557.875 176.987,560.288C175.874,560.994 175.353,561.462 174.832,561.929C174.832,561.929 174.926,561.935 174.626,561.985C173.496,562.662 172.666,563.289 171.837,563.916C171.837,563.916 171.924,563.922 171.602,563.937C170.468,564.609 169.656,565.265 168.844,565.922C168.844,565.922 168.923,565.931 168.596,566C165.457,568.016 162.644,569.963 159.832,571.91C159.832,571.91 159.964,571.93 159.658,571.96C158.508,572.631 157.664,573.272 156.821,573.913C156.821,573.913 156.966,573.925 156.637,573.948C154.817,574.952 153.326,575.932 151.835,576.912C151.835,576.912 151.971,576.978 151.728,576.973C151.078,577.279 150.671,577.591 150.264,577.902C146.728,579.953 143.191,582.003 138.969,584.264C135.132,586.286 131.982,588.097 128.831,589.908C128.831,589.908 128.962,589.922 128.6,589.939C124.776,591.613 121.314,593.269 117.852,594.926C117.852,594.926 117.955,594.943 117.581,594.956C111.821,596.727 106.433,598.484 100.647,600.287C91.988,602.722 83.909,602.258 76.021,598.79C76.021,598.79 76.037,598.923 75.945,598.638C74.928,597.837 74.005,597.322 73.081,596.807C73.081,596.807 73.078,596.913 72.962,596.604C72.241,596.116 71.636,595.937 71.031,595.758C71.031,595.758 71.033,595.972 71.312,595.636C71.079,594.793 70.567,594.288 70.056,593.782C69.616,593.23 69.177,592.677 68.355,591.729C67.012,590.161 66.05,588.99 65.088,587.819C65.088,587.819 65.046,587.962 65.039,587.727C64.964,587.328 64.896,587.165 64.781,586.681C63.706,584.793 62.676,583.225 61.647,581.656C61.647,581.656 61.302,581.61 61.442,581.437C61.085,580.455 60.59,579.645 60.094,578.835C60.094,578.835 60.08,578.962 60.063,578.595C48.541,551.226 42.912,522.934 41.978,493.704C41.597,481.8 42.025,469.871 42.085,457.953C42.085,457.953 41.997,458.025 42.269,457.964C42.641,457.602 42.742,457.301 42.924,456.595C46.399,444.136 49.792,432.081 53.184,420.025C53.184,420.025 53.057,420.036 53.333,419.921C53.791,419.192 53.973,418.577 54.155,417.962C54.155,417.962 54.022,418.021 54.335,417.887C56.486,414.527 58.324,411.301 60.163,408.074C60.163,408.074 60.074,408.077 60.366,407.939C61.196,406.563 61.734,405.326 62.272,404.088C62.31,404.259 62.349,404.43 62.718,404.483C63.049,404.365 63.063,404.172 63.063,404.172Z"
            style="fill:rgb(70,191,210);fill-rule:nonzero;"/>
    </g>
    <g transform="matrix(1.10425,0,0,1.0827,-42.708,-50.367)">
        <path
            d="M500.914,667.857C496.204,674.148 492.027,680.948 486.634,686.585C481.227,692.237 474.668,696.804 468.499,701.701C463.629,705.567 458.584,709.212 453.023,713.034C451.8,713.469 451.171,713.825 450.542,714.18C450.542,714.18 450.446,714.662 450.315,714.596C448.403,715.657 446.621,716.784 444.84,717.912C444.84,717.912 444.919,717.92 444.611,717.957C443.058,718.752 441.812,719.511 440.567,720.271C440.567,720.271 440.524,720.703 440.398,720.563C439.468,720.924 438.663,721.425 437.859,721.926C437.859,721.926 437.952,721.942 437.61,721.985C434.458,723.655 431.646,725.281 428.834,726.907C428.834,726.907 428.968,726.983 428.68,726.968C427.869,727.273 427.347,727.595 426.824,727.916C426.824,727.916 426.962,727.927 426.599,727.94C422.777,729.611 419.318,731.27 415.86,732.928C415.86,732.928 415.972,732.969 415.672,732.964C414.856,733.279 414.341,733.598 413.826,733.917C413.826,733.917 413.96,733.93 413.603,733.938C411.113,734.936 408.979,735.924 406.844,736.913C406.844,736.913 406.958,736.929 406.582,736.939C396.467,740.298 386.728,743.647 376.58,746.988C366.92,748.307 357.679,749.708 348.413,750.911C345.966,751.228 343.44,750.934 340.95,750.921C337.008,748.815 333.066,746.711 329.013,744.016C328.542,742.793 328.181,742.159 327.82,741.525C327.82,741.525 327.763,741.389 327.511,741.1C325.87,738.155 324.483,735.499 323.095,732.842C323.095,732.842 323.08,732.954 323.072,732.559C322.384,729.449 321.631,726.75 321.035,724.017C317.469,707.645 317.603,691.027 317.889,674.414C318.108,661.617 318.529,648.824 318.861,636.029C319.242,633.002 319.624,629.974 320.41,626.296C322.257,613.447 323.7,601.249 325.469,588.836C329.784,569.433 333.773,550.245 337.762,531.057C337.835,530.885 337.909,530.714 338.044,529.896C340.472,521.49 342.837,513.731 345.202,505.971C345.202,505.971 345.041,506.017 345.35,505.932C345.822,505.216 345.984,504.586 346.147,503.957C346.147,503.957 346.007,504.038 346.329,503.939C346.803,503.215 346.953,502.59 347.104,501.965C347.104,501.965 346.993,502.066 347.335,501.971C348.189,500.926 348.7,499.975 349.212,499.024C349.212,499.024 349.08,499.04 349.368,498.948C350.162,497.931 350.67,497.006 351.178,496.08C351.178,496.08 351.084,496.081 351.368,495.966C352.168,494.906 352.685,493.961 353.202,493.017C353.202,493.017 353.064,493.037 353.36,492.947C354.501,491.601 355.346,490.346 356.19,489.09C356.19,489.09 356.097,489.089 356.385,488.98C357.184,487.919 357.696,486.967 358.208,486.016C358.208,486.016 358.061,486.036 358.345,485.977C359.136,485.297 359.644,484.675 360.152,484.052C360.152,484.052 360.031,483.975 360.27,484.013C360.693,484.041 360.877,484.032 361.06,484.023C361.06,484.023 360.916,483.94 361.023,484.304C362.391,485.506 363.652,486.343 364.914,487.18C364.914,487.18 364.914,487.089 365.031,487.374C366.092,488.178 367.036,488.696 367.981,489.215C367.981,489.215 367.959,489.079 367.993,489.321C368.3,489.739 368.573,489.917 368.846,490.095C371.356,492.003 373.865,493.91 376.932,496.151C380.319,498.395 383.147,500.306 385.976,502.216C385.976,502.216 385.961,502.073 386.044,502.371C387.391,503.502 388.656,504.337 389.92,505.171C389.92,505.171 389.918,505.078 390.04,505.358C391.103,506.164 392.044,506.688 392.985,507.212C392.985,507.212 392.964,507.066 393.047,507.366C394.392,508.503 395.654,509.341 396.916,510.178C396.916,510.178 396.914,510.083 397.03,510.368C398.405,511.49 399.664,512.328 400.923,513.165C400.923,513.165 400.92,513.074 401.044,513.354C402.108,514.158 403.047,514.681 403.987,515.204C403.987,515.204 403.961,515.068 403.998,515.31C404.308,515.732 404.58,515.911 404.853,516.091C406.367,517.341 407.882,518.59 409.92,520.114C411.096,520.773 411.747,521.158 412.398,521.543C412.398,521.543 412.67,521.567 412.713,521.781C413.808,522.726 414.861,523.456 415.914,524.186C415.914,524.186 416.021,524.087 416.037,524.306C416.364,524.718 416.675,524.911 416.986,525.103C416.986,525.103 416.961,525.031 417.112,525.295C418.149,526.098 419.035,526.639 419.921,527.179C419.921,527.179 419.919,527.084 420.035,527.368C421.096,528.17 422.042,528.688 422.988,529.206C422.988,529.206 422.964,529.063 423.043,529.368C424.388,530.512 425.652,531.35 426.917,532.188C426.917,532.188 426.921,532.085 427.032,532.382C427.753,532.857 428.362,533.034 428.971,533.211C428.971,533.211 428.483,533.205 428.688,533.658C429.568,534.472 430.244,534.833 430.919,535.194C430.919,535.194 430.922,535.088 431.03,535.388C431.747,535.865 432.356,536.042 432.965,536.219C432.965,536.219 432.526,536.219 432.731,536.65C433.597,537.449 434.259,537.818 434.921,538.187C434.921,538.187 434.917,538.094 434.979,538.324C435.317,538.727 435.593,538.901 435.869,539.075C446.495,546.834 457.535,554.097 467.623,562.502C476.318,569.747 484.036,578.188 491.964,586.316C495.068,589.498 497.569,593.269 500.711,597.195C501.349,597.805 501.621,597.992 501.894,598.178C501.894,598.178 501.909,598.045 501.944,598.381C503.291,600.863 504.602,603.01 505.914,605.157C505.914,605.157 505.931,605.044 505.967,605.399C512.479,617.825 513.991,630.699 510.777,643.804C508.993,651.076 505.509,657.93 502.791,664.973C502.791,664.973 502.917,664.958 502.627,665.054C501.863,666.052 501.388,666.955 500.914,667.857Z"
            style="fill:rgb(70,191,210);fill-rule:nonzero;"/>
    </g>
    <path
        d="M114.308,31.058C130.618,25.771 144.595,31.664 157.989,39.169C173.553,47.889 187.952,58.331 200.614,71.016C206.804,77.218 212.964,83.452 219.213,89.595C223.605,93.913 228.721,97.637 232.463,102.445C240.061,112.208 246.998,122.49 254.12,132.619C298.675,195.979 325.57,266.601 340.098,342.266C342.135,352.875 343.466,363.618 345.25,374.278C345.585,376.281 346.523,378.182 347.336,380.581C351.888,377.973 355.904,376.012 359.477,373.437C360.668,372.578 361.638,369.818 361.158,368.484C356.292,354.93 366.665,336.659 382.859,334.558C386.726,334.056 387.713,331.972 388.062,328.172C389.203,315.761 391.022,303.415 392.4,291.024C395.672,261.613 397.667,232.182 387.537,203.595C382.78,190.171 376.242,177.625 364.069,169.023C359.201,165.584 361.179,160.728 361.914,156.08C371.391,153.09 378.59,156.467 384.667,163.784C398.613,180.579 404.8,200.392 407.002,221.622C410.791,258.149 403.349,293.522 395.196,328.761C394.321,332.545 394.763,334.593 398.56,336.148C401.577,337.383 404.143,339.681 407.007,341.339C409.501,342.784 411.667,344.366 413.415,339.78C414.488,336.968 417.798,334.976 420.19,332.706C424.655,328.469 429.022,324.105 433.732,320.155C438.143,316.455 442.967,313.249 447.573,309.778C464.789,296.804 482.671,284.987 503.022,277.367C518.434,271.597 534.312,267.9 550.789,268.183C556.978,268.289 563.188,270.227 569.272,271.781C571.391,272.322 573.916,273.805 574.913,275.602C576.379,278.246 578.149,282.43 577.031,284.359C575.67,286.708 571.562,288.016 568.423,288.606C566.005,289.061 563.211,287.848 560.648,287.144C543.896,282.538 527.566,285.626 511.456,290.185C486.692,297.192 465.252,310.339 445.484,326.579C436.431,334.017 426.95,340.961 417.372,347.715C414.565,349.694 413.286,351.72 414.188,354.694C417.077,364.216 412.604,372.38 408.778,380.212C407.334,383.168 402.063,384.686 398.234,385.929C394.114,387.267 392.658,389.465 392.975,393.606C393.151,395.887 392.632,398.231 392.338,400.535C391.749,405.157 392.845,406.125 397.175,404.478C409.785,399.681 422.252,394.482 434.985,390.042C470.121,377.792 506.056,368.635 542.84,362.832C564.89,359.353 587.02,357.456 609.356,356.707C656.343,355.133 702.446,359.393 747.096,374.875C761.453,379.853 774.875,386.678 787.51,395.332C796.5,401.489 800.524,410.1 802.533,419.872C804.338,428.647 800.395,436.277 796.016,443.836C791.162,452.216 784.4,458.373 776.669,463.763C765.939,471.244 754.941,478.373 744.548,486.295C737.948,491.326 732.301,497.595 726.102,503.169C722.94,506.014 719.044,508.149 716.273,511.303C707.458,521.335 699.083,531.752 690.401,541.903C686.178,546.841 681.122,551.143 677.388,556.404C672.093,563.865 664.99,569.413 658.654,575.741C638.675,595.697 614.984,608.938 586.347,609.446C574.698,609.653 562.928,605.284 551.29,602.656C546.833,601.65 542.589,599.693 537.224,597.809C537.492,600.623 537.407,602.541 537.883,604.307C547.202,638.907 537.079,668.629 515.128,695.4C510.348,701.229 505.651,707.135 500.632,712.753C499.306,714.238 496.582,714.415 495.085,715.818C484,726.209 471.315,734.414 458.317,742.001C429.823,758.632 399.94,772.046 367.065,777.402C350.214,780.148 333.43,780.14 318.101,771.099C307.457,764.822 300.206,755.238 297.216,743.448C293.961,730.615 290.792,717.433 290.259,704.294C288.137,652.065 296.976,601.185 311.446,551.161C311.85,549.763 312.135,548.33 312.797,545.581C310.51,546.622 308.783,546.857 308.013,547.841C292.895,567.13 277.576,586.277 263.078,606.026C259.405,611.031 254.611,614.485 250.542,618.838C247.73,621.846 243.269,622.938 238.972,620.785C234.833,618.713 233.372,615.029 234.043,610.76C234.841,605.68 235.859,600.578 237.399,595.679C244.953,571.646 253.618,548.061 266.441,526.215C267.311,524.732 267.523,522.863 268.041,521.174C267.566,520.899 267.091,520.625 266.616,520.35C264.971,521.873 263.23,523.306 261.696,524.934C250.459,536.858 237.607,547.057 224.85,557.128C201.147,575.843 176.981,594.058 150.59,609.012C132.819,619.081 114.666,628.129 94.003,630.454C77.533,632.307 62.977,627.675 50.847,616.36C35.766,602.291 29.924,583.261 24.13,564.41C14.859,534.246 10.974,503.257 12.049,471.749C13.032,442.962 19.214,415.513 36.643,391.815C46.646,378.214 57.896,365.587 74.099,359.052C79.9,356.712 86.211,355.645 92.268,353.922C93.445,353.588 94.523,352.905 95.647,352.382C94.954,351.189 94.538,349.619 93.519,348.872C90.072,346.349 86.087,344.484 82.918,341.678C79.401,338.563 76.548,334.695 73.416,331.147C55.772,311.161 48.373,287.989 49.631,261.271C50.842,235.542 58.087,211.48 66.77,187.666C73.57,169.015 80.234,150.338 82.291,130.459C83.54,118.394 84.237,106.262 84.881,94.145C85.829,76.313 88.971,59.252 98.512,43.633C102.354,37.343 108.028,34.374 114.308,31.058M722.497,465.867C732.063,458.303 741.561,448.843 751.354,441.24C751.586,441.146 751.819,441.047 752.028,441.048C752.028,441.048 751.926,441.026 752.291,440.657C752.535,440.412 758.926,434.322 759.175,434.18C759.175,434.18 766.183,427.378 768.493,424.044C770.13,421.682 770.975,420.206 768.669,417.434C764.722,414.118 758.638,410.895 754.806,409.207C742.095,403.61 728.923,398.956 715.607,395.12C704.019,391.782 691.908,390.258 679.618,387.472C664.813,385.984 650.024,383.513 635.198,383.254C615.974,382.918 596.702,384.041 577.486,385.143C567.934,385.691 558.46,387.594 548.07,388.911C538.894,390.264 529.657,391.304 520.56,393.064C512.622,394.599 504.841,396.944 496.157,398.937C494.68,399.156 493.144,399.186 491.734,399.623C468.691,406.765 445.621,413.826 422.667,421.245C417.571,422.892 412.896,425.844 408.041,428.075C408.041,428.075 408.161,428.091 407.367,428.041C404.586,429.424 401.805,430.807 399.038,432.071C399.038,432.071 399.157,432.087 398.41,432.068C396.615,433.107 394.821,434.147 393.022,435.08C393.022,435.08 393.129,435.077 392.418,435.016C391.945,435.013 391.472,435.01 390.425,435.335C388.968,436.635 387.51,437.935 385.949,439.648C385.785,439.914 385.547,440.049 384.616,440.39C382.44,445.315 380.265,450.241 378.074,455.033C378.074,455.033 378.207,455.019 377.586,455.335C376.064,458.552 374.541,461.769 372.995,464.992C372.995,464.992 373.014,464.972 373.341,465.505C373.956,465.977 374.571,466.45 375.076,466.923C375.076,466.923 375.078,466.813 375.255,467.48C376.223,467.96 377.191,468.44 378.079,468.927C378.079,468.927 378.073,468.847 378.145,469.348C378.744,469.575 379.343,469.802 380.609,470.204C384.476,473.247 388.191,476.509 392.24,479.286C400.482,484.94 446.77,515.258 452.051,519.263C452.426,519.476 452.802,519.688 453.038,519.926C453.038,519.926 453.014,519.787 453.335,520.387C454.282,520.896 455.229,521.406 456.033,521.929C456.033,521.929 456.02,521.785 456.319,522.419C459.271,524.253 462.222,526.087 465.033,527.935C465.033,527.935 465.02,527.794 465.286,528.365C466.511,528.921 467.735,529.477 469.629,530.193C481.133,537.765 492.638,545.337 503.97,553.394C505.034,553.898 506.098,554.402 507.038,554.92C507.038,554.92 507.024,554.796 507.323,555.435C510.268,556.929 513.212,558.423 516.038,559.934C516.038,559.934 516.022,559.815 516.37,560.433C517.631,560.928 518.892,561.423 520.037,561.935C520.037,561.935 520.023,561.82 520.319,562.464C525.675,565.373 530.882,568.612 536.414,571.135C559.603,581.708 583.38,585.266 607.939,576.083C610.466,575.138 612.641,573.254 614.964,571.93C614.964,571.93 614.839,571.913 615.589,571.926C617.718,570.548 619.847,569.169 621.964,567.929C621.964,567.929 621.826,567.916 622.5,567.857C623.327,567.168 624.155,566.479 624.964,565.934C624.964,565.934 624.821,565.915 625.533,565.858C626.662,564.846 627.791,563.834 628.918,562.919C628.918,562.919 628.821,562.915 629.497,562.866C630.65,561.98 631.803,561.094 633.588,559.898C636.063,557.257 638.582,554.656 641.005,551.968C647.142,545.158 653.427,538.469 659.304,531.44C669.667,519.047 679.771,506.437 690.44,494.074M345.751,504.445C345.53,505.023 345.309,505.601 345.041,506.017C345.041,506.017 345.202,505.971 344.662,506.446C339.327,515.702 335.488,532.906 334.87,536.716C332.021,554.287 327.637,571.575 324.003,589.862C323.814,591.331 323.595,592.797 323.442,594.27C323.42,594.474 323.398,594.685 323.374,594.901C322.171,605.905 318.024,631.958 317.513,639.757C316.921,648.784 316.485,657.82 316.037,666.855C315.701,673.637 314.937,680.449 315.273,687.202C315.756,696.909 316.665,706.639 318.174,716.236C319.07,721.935 321.469,727.398 323.08,732.954C323.08,732.954 323.095,732.842 323.046,733.637C324.571,736.235 326.097,738.833 327.763,741.389C327.763,741.389 327.82,741.525 327.621,742.108C328.017,742.73 328.413,743.352 329.124,744.606C333.066,746.711 337.008,748.815 341.666,751.352C354.528,753.23 366.999,751.695 379.891,747.024C386.373,745.036 392.913,743.214 399.31,740.981C402.019,740.036 404.427,738.23 406.958,736.929C406.958,736.929 406.844,736.913 407.627,736.957C409.741,735.904 411.856,734.85 413.96,733.93C413.96,733.93 413.826,733.917 414.444,733.823C414.967,733.501 415.49,733.179 415.972,732.969C415.972,732.969 415.86,732.928 416.658,732.949C420.096,731.229 423.534,729.509 426.962,727.927C426.962,727.927 426.824,727.916 427.449,727.818C427.98,727.495 428.512,727.173 428.968,726.983C428.968,726.983 428.834,726.907 429.599,726.925C432.388,725.233 435.177,723.541 437.952,721.942C437.952,721.942 437.859,721.926 438.542,721.9C439.347,721.516 440.151,721.133 440.524,720.703C440.524,720.703 440.567,720.271 441.284,720.484C442.498,719.603 443.712,718.722 444.919,717.92C444.919,717.92 444.84,717.912 445.574,717.923C447.358,716.87 449.143,715.816 450.446,714.662C450.446,714.662 450.542,714.18 451.12,714.392C451.735,713.996 452.349,713.6 453.617,712.955C458.584,709.212 463.629,705.567 468.499,701.701C474.668,696.804 481.227,692.237 486.634,686.585C492.027,680.948 496.204,674.148 501.399,668.031C501.9,666.965 502.4,665.899 502.917,664.958C502.917,664.958 502.791,664.973 503.421,664.656C512.132,652.437 515.18,638.706 513.385,624.033C512.551,617.213 511.454,610.113 505.931,605.044C505.931,605.044 505.914,605.157 505.93,604.405C504.545,602.28 503.161,600.156 501.909,598.045C501.909,598.045 501.894,598.178 501.877,597.792C501.557,597.575 501.236,597.359 500.345,596.772C497.569,593.269 495.068,589.498 491.964,586.316C484.036,578.188 476.318,569.747 467.623,562.502C464.43,559.842 444.778,544.727 431.407,534.908C402.536,513.707 370.593,491.288 368.945,489.744C368.571,489.53 368.198,489.316 367.959,489.079C367.959,489.079 367.981,489.215 367.66,488.616C366.714,488.107 365.768,487.599 364.914,487.089C364.914,487.089 364.914,487.18 364.777,486.501C363.462,485.695 362.147,484.889 360.916,483.94C360.916,483.94 361.06,484.023 360.782,484.05C360.506,484.019 360.231,484.034 360.031,483.975C360.031,483.975 360.152,484.052 359.535,484.247C359.051,484.892 358.566,485.537 358.061,486.036C358.061,486.036 358.208,486.016 357.611,486.342C357.107,487.288 356.603,488.235 356.097,489.089C356.097,489.089 356.19,489.09 355.511,489.232C354.703,490.546 353.894,491.86 353.064,493.037C353.064,493.037 353.202,493.017 352.607,493.34C352.101,494.285 351.594,495.23 351.084,496.081C351.084,496.081 351.178,496.08 350.511,496.263C350.04,497.232 349.569,498.202 349.08,499.04C349.08,499.04 349.212,499.024 348.609,499.339C348.104,500.286 347.599,501.232 346.993,502.066C346.993,502.066 347.104,501.965 346.732,502.458C346.517,503.031 346.303,503.605 346.007,504.038C346.007,504.038 346.147,503.957 345.751,504.445M71.033,595.972C71.033,595.972 71.031,595.758 71.513,596.163C72.07,596.413 72.627,596.664 73.078,596.913C73.078,596.913 73.081,596.807 73.265,597.475C74.233,597.952 75.202,598.429 76.037,598.923C76.037,598.923 76.021,598.79 76.36,599.443C84.621,605.026 93.33,603.511 102.879,601.021C107.909,598.96 112.94,596.9 117.955,594.943C117.955,594.943 117.852,594.926 118.637,594.923C122.083,593.212 125.529,591.501 128.962,589.922C128.962,589.922 128.831,589.908 129.6,589.928C132.708,588.05 135.817,586.171 139.655,584.053C143.191,582.003 146.728,579.953 150.758,577.728C151.185,577.432 151.611,577.137 151.971,576.978C151.971,576.978 151.835,576.912 152.563,576.925C154.034,575.877 155.506,574.828 156.966,573.925C156.966,573.925 156.821,573.913 157.495,573.86C158.325,573.172 159.154,572.485 159.964,571.93C159.964,571.93 159.832,571.91 160.581,571.92C163.364,569.897 166.147,567.875 168.923,565.931C168.923,565.931 168.844,565.922 169.545,565.895C170.34,565.208 171.134,564.521 171.924,563.922C171.924,563.922 171.837,563.916 172.535,563.899C173.334,563.213 174.132,562.526 174.926,561.935C174.926,561.935 174.832,561.929 175.382,561.826C175.89,561.343 176.398,560.861 177.579,560.049C180.386,557.875 183.166,555.667 186.003,553.534C195.937,546.064 205.922,538.662 215.825,531.152C224.236,524.773 232.717,518.472 240.872,511.778C247.749,506.134 254.184,499.953 260.848,494.049C266.934,488.657 273.066,483.318 279.466,477.608C279.619,477.348 279.804,477.113 279.948,477.005C279.948,477.005 279.845,476.932 280.518,476.775C281.317,475.458 282.115,474.141 282.928,472.967C282.928,472.967 282.785,472.979 283.417,472.61C286.579,464.35 289.74,456.091 293.014,447.942C293.014,447.942 292.904,448.055 292.94,447.78C293.029,447.517 293.007,447.255 292.993,447.029C292.993,447.029 292.959,447.148 292.738,446.481C290.874,445.208 289.151,443.615 287.122,442.713C271.359,435.703 255.567,428.752 239.716,421.945C233.805,419.407 227.709,417.298 221.462,414.391C209.745,409.367 198.039,404.319 186.291,399.367C185.282,398.942 184.002,399.161 182.961,399.063C182.961,399.063 182.977,399.176 182.625,398.553C174.556,395.582 166.586,392.296 158.398,389.704C140.724,384.109 122.688,380.463 103.193,381.13C95.786,383.476 88.378,385.822 81.031,388.025C81.031,388.025 81.175,388.086 80.488,388.13C79.345,389.045 78.202,389.96 76.49,391.186C72.015,395.515 67.539,399.844 62.886,404.128L62.763,404.257C62.763,404.257 62.901,404.489 62.387,404.6C62.349,404.43 62.31,404.259 61.731,404.52C61.18,405.735 60.629,406.951 60.074,408.077C60.074,408.077 60.163,408.074 59.489,408.229C57.686,411.537 55.883,414.846 54.022,418.021C54.022,418.021 54.155,417.962 53.749,418.441C53.522,419.015 53.295,419.589 53.057,420.036C53.057,420.036 53.184,420.025 52.555,420.349C45.733,431.614 42.851,444.017 42.011,457.557C42.031,457.743 42.05,457.928 41.997,458.025C41.997,458.025 42.085,457.953 41.666,458.626C41.438,459.583 41.014,460.539 41.01,461.497C40.954,475.227 40.394,488.985 41.069,502.682C42.161,524.823 46.651,546.421 54.06,567.332C55.511,571.425 58.128,575.104 60.08,578.962C60.08,578.962 60.094,578.835 60.085,579.524C60.474,580.335 60.864,581.145 61.302,581.61C61.302,581.61 61.647,581.656 61.471,582.344C62.296,583.903 63.122,585.462 64.318,587.399C64.608,587.6 64.899,587.802 65.046,587.962C65.046,587.962 65.088,587.819 65.142,588.538C66.171,589.673 67.2,590.807 68.737,592.125C69.177,592.677 69.616,593.23 70.21,594.392C70.556,594.917 70.902,595.443 71.033,595.972M153.063,354.019C153.063,354.019 152.964,353.911 153.46,354.276C154.031,354.491 154.603,354.706 155.049,355.011C155.049,355.011 154.957,354.886 155.448,355.258C156.018,355.485 156.588,355.712 157.071,355.941C157.071,355.941 157.07,355.855 157.217,356.518C159.124,357.689 161.031,358.86 163.444,360.494C165.352,361.303 167.26,362.113 169.049,363.012C169.049,363.012 168.96,362.893 169.453,363.269C170.026,363.486 170.598,363.703 171.026,363.932C171.026,363.932 171.016,363.786 171.363,364.417C173.297,365.247 175.232,366.077 177.049,366.999C177.049,366.999 176.958,366.882 177.449,367.259C178.02,367.484 178.592,367.709 179.036,367.945C179.036,367.945 179.026,367.817 179.338,368.438C182.412,369.921 185.486,371.403 188.96,373.325C193.323,375.617 197.687,377.91 202.409,380.463C202.673,380.605 202.897,380.794 202.943,381.012C202.943,381.012 202.962,380.876 203.447,381.277C204.024,381.49 204.601,381.703 205.057,382.013C205.057,382.013 204.959,381.892 205.455,382.263C206.027,382.483 206.599,382.703 207.024,382.935C207.024,382.935 207.014,382.788 207.356,383.404C211.293,385.24 215.23,387.075 219.035,388.924C219.035,388.924 219.023,388.791 219.351,389.413C223.792,391.884 228.096,394.654 232.706,396.754C239.248,399.735 246.015,402.223 253.09,405.527C256.061,406.72 259.033,407.914 262.283,409.72C267.438,412.281 272.494,415.069 277.771,417.345C284.139,420.092 290.693,422.406 297.053,424.999C297.053,424.999 296.961,424.885 297.47,425.298C298.065,425.568 298.661,425.838 299.855,426.38C301.341,427.267 302.827,428.154 303.895,428.792C308.702,422.318 313.327,416.09 318.13,409.893L318.255,409.75C318.255,409.75 318.131,409.512 318.681,409.418C318.714,409.602 318.746,409.785 319.141,409.458C319.397,408.909 319.652,408.361 320.005,407.926C320.005,407.926 319.892,408.023 320.263,407.647C320.516,407.403 320.768,407.159 320.911,407.02C320.911,407.02 320.805,406.91 321.486,406.767C326.917,403.71 327.203,399.039 326.109,393.534C322.632,376.045 319.399,358.507 316.038,340.172C315.84,339.029 315.705,337.871 315.435,336.745C306.257,298.337 293.696,261.098 276.616,225.455C274.219,220.453 271.024,215.833 267.869,210.389C260.924,198.578 253.979,186.767 247.341,174.494C246.49,173.338 245.639,172.182 244.928,171.039C244.928,171.039 244.913,171.178 244.865,170.46C243.505,168.648 242.145,166.836 240.926,165.041C240.926,165.041 240.907,165.181 240.871,164.47C239.875,163.334 238.88,162.198 237.953,161.064C237.953,161.064 237.932,161.128 237.911,160.414C237.152,159.366 236.393,158.318 235.584,157.538C235.584,157.538 235.316,157.491 235.425,156.831C234.886,156.248 234.347,155.665 233.908,155.082C233.908,155.082 233.906,155.182 233.86,154.503C233.159,153.686 232.459,152.87 231.15,151.782C225.356,144.358 219.658,136.857 213.735,129.538C209.491,124.292 205.092,119.153 200.485,114.225C197.102,110.607 193.217,107.464 189.653,104.01C184.754,99.263 180.219,94.1 175.025,89.709C169.613,85.134 163.603,81.265 157.945,76.737C157.571,76.525 157.197,76.313 156.959,76.079C156.959,76.079 156.98,76.216 156.662,75.615C155.716,75.107 154.77,74.598 153.917,74.087C153.917,74.087 153.918,74.18 153.743,73.511C152.773,73.039 151.803,72.566 150.915,72.087C150.915,72.087 150.919,72.17 150.774,71.489C148.129,70.022 145.485,68.554 142.959,67.071C142.959,67.071 142.973,67.189 142.672,66.545C140.392,65.396 138.112,64.246 135.963,63.013C135.963,63.013 136.045,63.144 135.555,62.753C134.979,62.529 134.403,62.304 133.962,62.067C133.962,62.067 133.974,62.203 133.63,61.578C130.343,58.518 128.256,60.635 127.279,63.582C123.993,73.498 120.39,83.382 118.166,93.553C116.197,102.555 115.907,111.924 114.158,121.005C114.199,120.765 114.24,120.525 114.127,121.231C111.428,143.41 106.48,165.04 98.634,186C96.788,190.929 95.585,196.099 94.069,201.04C94.069,201.04 94.187,201.024 93.558,201.369C93.139,201.878 92.552,202.32 92.326,202.903C83.037,226.773 75.732,251.106 79.262,277.1C80.232,284.245 83.792,291.038 86.031,298.049C86.031,298.049 85.973,297.917 86.283,298.23C86.439,298.48 86.611,298.719 86.972,299.662C93.45,311.448 102.18,321.235 113.306,328.78C120.482,333.646 127.864,338.21 135.063,343.257C135.433,343.472 135.803,343.688 136.06,344C136.06,344 135.963,343.886 136.454,344.266C137.029,344.48 137.604,344.694 138.04,344.918C138.04,344.918 138.031,344.779 138.332,345.432C139.945,346.254 141.559,347.076 143.045,347.911C143.045,347.911 143.034,347.784 143.324,348.424C145.94,349.922 148.557,351.42 151.053,353.011C151.053,353.011 150.959,352.891 151.451,353.271C152.024,353.487 152.597,353.704 153.063,354.019Z"
        style="fill:rgb(7,33,54);fill-rule:nonzero;"/>
</svg>
